<?xml version="1.0" standalone="no"?>
<!DOCTYPE svg PUBLIC "-//W3C//DTD SVG 20010904//EN"
 "http://www.w3.org/TR/2001/REC-SVG-20010904/DTD/svg10.dtd">
<svg version="1.0" xmlns="http://www.w3.org/2000/svg"
 width="128.000000pt" height="128.000000pt" viewBox="0 0 128.000000 128.000000"
 preserveAspectRatio="xMidYMid meet">
<metadata>
Created by potrace 1.14, written by Peter Selinger 2001-2017
</metadata>
<g transform="translate(0.000000,128.000000) scale(0.100000,-0.100000)"
fill="#000000" stroke="none">
<path d="M77 1265 c-37 -19 -55 -38 -67 -70 -6 -16 -10 -226 -10 -558 0 -496
1 -535 18 -566 10 -19 34 -43 53 -53 31 -17 70 -18 569 -18 499 0 538 1 569
18 19 10 43 34 53 53 17 31 18 70 18 569 0 499 -1 538 -18 569 -10 19 -34 43
-53 53 -31 17 -70 18 -569 18 -447 0 -540 -2 -563 -15z"/>
</g>
</svg>
