<svg width="102" height="61" viewBox="0 0 102 61" fill="none" xmlns="http://www.w3.org/2000/svg">
<path d="M82.2792 35.7627C81.8674 36.0525 81.2284 36.2047 80.3621 36.2193C77.6527 35.8821 74.9113 35.5519 72.138 35.2288C70.3554 35.0179 68.5439 34.7422 66.7037 34.4016C61.5665 33.447 56.0706 32.0332 50.2162 30.1605C49.7311 30.0089 49.2874 29.7659 48.885 29.4314C48.738 29.3104 48.5989 29.3175 48.4676 29.4527L48.3253 29.5872C48.2417 29.6739 48.2356 29.7622 48.3071 29.8522C48.6827 30.3069 49.3281 30.682 50.2434 30.9777C56.8993 33.1346 63.1663 34.5993 69.0444 35.3718C70.3198 35.5368 71.8536 36.1411 73.0447 36.1617C75.4382 36.1999 77.8186 36.4019 80.1859 36.7674L83.813 36.7719C84.0977 36.7729 84.1823 36.6437 84.067 36.3844C83.8934 36.0027 83.5075 35.699 82.9092 35.4731C82.7939 35.1583 82.6378 34.9276 82.4408 34.781C78.7603 32.1549 75.5254 29.0436 72.7361 25.4469C72.4374 25.0567 72.3732 24.6178 72.5434 24.1303C72.648 23.8454 72.6529 23.5573 72.5583 23.2661C72.2177 22.1926 72.179 21.0566 72.4423 19.8582C72.8625 17.9346 74.4351 17.0828 76.1485 18.0599C78.2782 19.2763 80.5011 20.2661 82.4825 21.7052C85.5688 23.9356 88.5495 26.1957 91.4247 28.4856C93.7601 30.3428 96.2418 31.9272 98.6768 33.6248C99.7846 34.4033 100.262 35.4196 100.11 36.6737C100.075 36.9598 100.116 37.2362 100.23 37.5029L101.847 41.1079C101.944 41.3142 101.919 41.5085 101.774 41.6908C101.527 42.003 101.179 42.1955 100.73 42.2683C100.658 42.2789 100.59 42.308 100.532 42.3528C100.475 42.3975 100.43 42.4564 100.402 42.5237C100.374 42.5911 100.364 42.6645 100.372 42.7369C100.381 42.8093 100.408 42.8782 100.452 42.9369C100.877 43.5208 100.81 44.3481 100.135 44.7179C99.5017 45.0627 98.8197 45.2212 98.241 45.653C93.2729 49.3542 88.1286 53.3612 82.808 57.6742C81.3748 58.8406 77.5754 61.2704 75.8123 59.6409C75.5477 59.401 75.5525 59.1683 75.8268 58.9431C76.2505 58.5876 76.7262 58.3632 77.254 58.2699C77.6129 58.2131 77.632 58.0961 77.3113 57.9189C76.8412 57.6574 76.3283 57.5335 75.7727 57.5472C75.5209 57.5521 75.3663 57.4343 75.3088 57.1937C75.2285 56.8554 75.3367 56.5707 75.6336 56.3396C75.8061 56.1962 75.8361 56.0281 75.7236 55.8355C75.1418 54.8824 75.2883 53.931 76.1632 52.9815C78.2605 50.7032 80.3298 48.619 82.371 46.7288C82.8999 46.24 82.8017 46.0003 82.0763 46.0098C78.8739 46.0677 75.7026 45.8597 72.5625 45.3857C69.4366 44.9201 66.4117 44.5465 63.4876 44.2648C54.9849 43.4548 43.4483 40.701 36.9104 34.69C36.6738 34.4741 36.3952 34.357 36.0748 34.3387C34.1344 34.2446 32.1936 34.4001 30.2454 34.1779C23.5521 33.4309 15.8949 30.3992 11.1758 25.2838C7.85571 21.6896 4.57928 18.348 2.71508 13.6611C1.50817 10.6332 -0.506665 5.79731 0.305146 2.69144C0.471229 2.04833 0.913989 1.60352 1.63344 1.357C1.94773 1.24911 2.15317 1.35378 2.24976 1.671C2.44496 2.276 2.81511 2.75617 3.3602 3.11151C3.67934 3.31087 3.815 3.59748 3.7672 3.97137C3.44877 6.59522 6.08101 11.1628 7.69101 13.1645C10.0654 16.1263 12.1629 18.4054 13.9837 20.0018C17.641 23.2086 24.8625 25.3951 29.9161 26.2738C30.0098 26.2904 30.1062 26.2831 30.1963 26.2524C30.2864 26.2217 30.3673 26.1687 30.4314 26.0984C30.4955 26.028 30.5407 25.9425 30.5628 25.8499C30.5849 25.7574 30.5832 25.6607 30.5579 25.5689C28.9516 19.6536 29.1788 13.801 31.2394 8.01113C32.8592 3.47416 36.9455 -1.60377 42.3891 0.948949C43.059 1.26477 43.748 1.54308 44.4562 1.78388C48.5475 3.19011 51.0843 7.61252 51.6765 11.8407C52.0936 14.82 52.2902 17.86 52.2663 20.9607C52.24 23.8282 51.266 26.2241 49.3446 28.1484C49.2613 28.2308 49.2008 28.3332 49.1688 28.4459C49.1367 28.5586 49.1341 28.6778 49.1612 28.7924C49.1883 28.9069 49.2443 29.013 49.3238 29.1006C49.4033 29.1881 49.5037 29.2543 49.6156 29.2929C54.5441 30.9451 59.5398 32.5076 64.5965 33.3421C67.006 33.7401 69.385 34.1509 71.7336 34.5743C75.1417 35.185 78.7406 35.2762 82.2792 35.7627ZM34.1442 32.3518C34.1411 32.3098 34.1166 32.2698 34.0721 32.2341C34.0276 32.1984 33.964 32.1677 33.885 32.1437C33.8059 32.1198 33.713 32.103 33.6114 32.0944C33.5098 32.0859 33.4017 32.0857 33.293 32.0938C33.1844 32.1019 33.0775 32.1182 32.9783 32.1418C32.8791 32.1654 32.7897 32.1958 32.7151 32.2313C32.6405 32.2667 32.5822 32.3066 32.5436 32.3485C32.5049 32.3904 32.4866 32.4336 32.4897 32.4757C32.4929 32.5177 32.5174 32.5577 32.5619 32.5934C32.6063 32.6291 32.6699 32.6598 32.749 32.6838C32.828 32.7077 32.921 32.7245 33.0225 32.733C33.1241 32.7416 33.2323 32.7418 33.3409 32.7337C33.4496 32.7256 33.5565 32.7092 33.6557 32.6857C33.7548 32.6621 33.8442 32.6317 33.9188 32.5962C33.9934 32.5608 34.0517 32.5209 34.0904 32.479C34.1291 32.4371 34.1473 32.3939 34.1442 32.3518ZM72.2209 43.41C75.4423 43.4254 78.7724 44.0418 82.1267 43.8168C82.2048 43.8111 82.2427 43.7712 82.2403 43.6971L82.2462 43.6919C82.2454 43.5957 82.1952 43.5461 82.0956 43.5429C75.6924 43.2558 69.129 42.4752 62.4052 41.2011C61.9637 41.1154 61.563 40.9456 61.2032 40.6917C60.9391 40.4998 60.6528 40.4691 60.3443 40.5995C60.0511 40.7236 59.7455 40.7582 59.4276 40.7031C53.4062 39.6472 48.0856 37.835 43.4657 35.2666C41.6526 34.2587 41.4345 34.5285 42.8112 36.076C42.87 36.1355 43.3772 36.3958 44.3329 36.8569C51.5435 40.309 59.3044 42.4474 67.6157 43.2719C68.4533 43.3515 69.9884 43.3975 72.2209 43.41ZM68.4112 39.0279C62.4392 38.0604 55.9839 36.6457 49.0453 34.7837C49.0202 34.7766 48.994 34.7746 48.9682 34.7777C48.9424 34.7809 48.9175 34.7892 48.8949 34.8021C48.8723 34.815 48.8526 34.8323 48.8367 34.853C48.8209 34.8736 48.8094 34.8972 48.8028 34.9224L48.7361 35.1674C48.7168 35.2326 48.7415 35.2768 48.8102 35.3C59.6403 38.7043 70.7558 40.5345 82.1566 40.7905C82.2194 40.7911 82.2529 40.762 82.2569 40.7031L82.2705 40.5044C82.273 40.4676 82.2559 40.4479 82.2191 40.4454C75.7491 39.9466 71.1464 39.4741 68.4112 39.0279ZM85.4374 37.754C72.5718 37.3976 60.0277 35.183 47.8049 31.1101C47.6858 31.0687 47.6035 31.1093 47.5581 31.2319L47.4893 31.4268C47.4478 31.546 47.4867 31.6263 47.6059 31.6678C51.8929 33.2113 56.7554 34.5335 62.1931 35.6345C70.5666 37.3323 78.3303 38.2155 85.4843 38.2841C85.5692 38.2862 85.6146 38.2431 85.6207 38.1548L85.6233 37.9553C85.6248 37.9041 85.6062 37.8543 85.5715 37.8166C85.5367 37.779 85.4886 37.7565 85.4374 37.754ZM38.8127 20.283C39.7517 21.6341 40.6589 23.1272 41.8885 24.2043C42.0875 24.3769 42.3009 24.3915 42.5289 24.2482C47.8098 20.8384 49.6282 16.8031 44.6681 11.8874C43.003 10.2314 40.8376 9.45448 38.172 9.55657C32.833 9.76761 37.5505 18.466 38.8127 20.283ZM40.9553 8.0334C41.7135 8.35527 42.4814 8.58906 43.259 8.73479C43.6534 8.80618 43.7128 8.69562 43.437 8.4031C42.7503 7.68677 41.9296 7.46785 40.975 7.74633C40.6995 7.8273 40.693 7.92298 40.9553 8.0334ZM42.9205 1.85615C42.1447 1.52197 41.5742 1.64559 41.2089 2.22698C41.1661 2.29483 41.1484 2.3755 41.1587 2.45506C41.169 2.53462 41.2068 2.60808 41.2656 2.66273C41.3243 2.71739 41.4003 2.74983 41.4804 2.75444C41.5605 2.75905 41.6397 2.73555 41.7043 2.68799C42.0434 2.4339 42.4245 2.29547 42.8476 2.27268C43.4454 2.23599 43.4697 2.09715 42.9205 1.85615Z" fill="#0070D5" fill-opacity="0.5"/>
</svg>
