<svg width="1674" height="1955" viewBox="0 0 1674 1955" fill="none" xmlns="http://www.w3.org/2000/svg">
<path d="M1175.03 778.373C1141.73 736.935 1119.17 686.398 1103.3 645.854C1067.62 554.822 1049.36 457.921 1031.49 364.319C1008.17 242.575 984.293 116.764 922.113 2.3133L925.298 0.656311C987.645 115.876 1011.53 241.688 1035.07 363.706C1052.71 457.034 1071.25 553.714 1106.93 644.746C1132.37 710.122 1175.09 800.918 1251.55 837.033C1308.25 863.736 1359.78 845.801 1414.18 826.925L1419.4 824.988C1479.01 804.175 1568.42 804.133 1623.72 843.707C1656.93 867.605 1673.95 902.262 1673.61 946.803C1673.23 996.348 1648.13 1031.43 1624.12 1065.64C1590.74 1112.34 1559.39 1156.51 1602.67 1230.59L1599.71 1232.52C1555.6 1156.85 1587.55 1111.74 1621.31 1063.83C1645.26 1030.12 1669.82 995.476 1670.31 947.196C1670.76 903.919 1654.41 870.085 1622.13 846.79C1567.77 807.819 1480.06 808.297 1421.27 828.448L1416.06 830.385C1360.89 849.428 1308.81 867.804 1250.68 840.445C1220.18 826.108 1195.55 803.895 1175.03 778.373Z" fill="black" fill-opacity="0.1"/>
<path d="M1138.54 807.711C1105.01 765.998 1082.51 714.967 1066.41 674.148C1031.23 583.17 1012.64 486.985 994.721 393.877C971.4 272.133 947.574 145.827 884.678 31.0483L887.863 29.3913C950.705 144.665 974.532 270.971 998.294 393.264C1015.99 486.097 1034.58 582.282 1069.54 672.986C1094.99 738.363 1137.43 829.379 1213.84 865.989C1270.98 893.241 1322.79 875.085 1377.46 855.988L1381.63 854.439C1441.25 833.626 1530.93 833.364 1586.01 872.662C1619.22 896.56 1636.24 931.218 1635.9 975.759C1635.52 1025.3 1610.64 1060.66 1586.14 1094.81C1552.76 1141.52 1521.68 1185.47 1564.25 1259.22L1561.06 1260.88C1517.45 1185.26 1549.4 1140.15 1583.11 1092.73C1607.06 1059.02 1631.89 1024.16 1632.16 975.602C1632.34 932.547 1615.98 898.712 1583.71 875.417C1529.56 836.721 1441.36 837.145 1382.52 857.791L1378.35 859.34C1322.63 878.825 1270.33 896.926 1211.98 869.293C1183.24 854.897 1158.83 832.959 1138.54 807.711Z" fill="black" fill-opacity="0.1"/>
<path d="M1102.04 837.049C1068.29 795.061 1045.57 743.756 1029.75 702.716C994.786 612.013 976.639 516.376 958.664 423.764C935.396 301.525 911.349 174.944 848.233 59.891L851.418 58.234C914.481 173.782 938.749 300.637 962.016 422.876C979.496 515.435 997.917 610.851 1032.66 701.28C1058.1 766.656 1100.49 858.168 1176.9 894.778C1234.26 922.304 1286.34 903.928 1341.51 884.885L1344.64 883.723C1404.75 862.964 1494.21 862.427 1549.56 901.505C1583.05 925.182 1599.57 959.786 1599.73 1004.38C1599.85 1053.98 1574.47 1089.29 1550.19 1123.71C1517.08 1170.19 1485.73 1214.37 1527.8 1288.06L1524.62 1289.72C1481.5 1214.16 1513.18 1169.27 1547.16 1121.63C1571.11 1087.92 1596.21 1052.83 1595.99 1004.22C1595.95 960.894 1579.81 927.334 1547.26 904.26C1493.12 865.564 1404.87 866.482 1345.8 886.854L1342.67 888.016C1286.68 907.721 1233.61 925.99 1175.31 897.861C1146.52 883.961 1122.33 862.296 1102.04 837.049Z" fill="black" fill-opacity="0.1"/>
<path d="M1065.32 866.112C1031.57 824.125 1008.9 772.324 992.861 731.01C958.34 640.855 939.919 545.439 922.385 453.376C898.897 330.863 874.904 203.787 811.292 88.6799L814.478 87.0229C878.036 202.625 902.524 329.755 925.737 452.488C943.271 544.552 961.472 639.693 996.046 729.353C1021.22 794.95 1063.6 886.462 1140.18 923.841C1197.76 951.642 1247.98 934.315 1305.78 914.056L1307.87 913.281C1368.25 892.301 1457.99 891.544 1512.84 930.568C1546.33 954.246 1563.13 988.629 1563.29 1033.22C1563.4 1082.82 1538.24 1118.4 1513.96 1152.83C1480.86 1199.31 1449.51 1243.48 1491.36 1316.91L1488.17 1318.56C1445.49 1243.55 1477.45 1198.44 1510.93 1150.74C1535.16 1116.81 1559.77 1081.68 1559.77 1033.34C1559.72 990.012 1543.31 956.672 1510.76 933.597C1456.57 895.396 1368.09 896.041 1308.75 916.633L1306.67 917.408C1250.18 937.059 1196.83 955.548 1138.32 927.145C1109.8 913.024 1085.61 891.36 1065.32 866.112Z" fill="black" fill-opacity="0.1"/>
<path d="M1028.82 895.45C994.848 853.188 971.963 801.113 955.975 759.304C921.675 669.424 903.42 574.777 886.107 482.988C862.673 359.98 838.405 233.125 774.573 117.743L777.758 116.086C841.811 231.742 866.246 359.367 889.405 482.595C906.993 574.164 924.973 669.031 959.327 758.417C984.498 824.014 1026.83 916.02 1103.41 953.399C1161.15 981.97 1211.7 963.927 1270.27 943.501L1271.31 943.114C1331.7 922.134 1421.71 921.156 1476.84 959.96C1510.11 983.363 1527.12 1018.02 1527.56 1062.39C1527.89 1112.27 1502.73 1147.85 1477.96 1182.22C1444.85 1228.7 1413.5 1272.88 1454.64 1345.97L1451.45 1347.63C1409.27 1272.67 1441.22 1227.56 1474.93 1180.13C1499.16 1146.21 1524.04 1110.85 1523.54 1062.46C1523.22 1019.35 1506.59 985.735 1474.26 962.935C1420.07 924.734 1331.54 925.873 1271.93 946.687L1270.88 947.074C1214.13 966.945 1160.5 985.655 1101.32 956.429C1072.81 942.308 1048.89 920.423 1028.82 895.45Z" fill="black" fill-opacity="0.1"/>
<path d="M992.319 924.788C958.128 882.251 935.297 829.681 919.309 787.872C885.45 698.541 867.416 604.169 849.828 512.6C826.174 389.318 801.96 261.967 737.907 146.312L741.093 144.655C805.587 260.859 830.021 388.484 853.401 511.987C870.768 603.281 888.582 697.379 922.715 786.49C947.612 852.307 989.945 944.314 1066.46 982.188C1124.43 1011.03 1175.48 993.044 1234.04 972.618C1294.7 951.418 1384.71 950.44 1439.85 989.244C1473.11 1012.65 1490.18 1046.81 1490.62 1091.18C1490.95 1141.06 1465.79 1176.64 1441.24 1211.28C1408.13 1257.77 1376.78 1301.94 1417.7 1374.76L1414.51 1376.41C1372.82 1301.51 1404.5 1256.62 1438.21 1209.2C1462.44 1175.27 1487.32 1139.91 1486.88 1091.03C1486.56 1047.92 1469.93 1014.3 1437.32 991.724C1383.35 953.797 1294.33 954.883 1234.71 975.696C1177.46 995.514 1123.56 1014.44 1064.16 984.943C1035.87 971.097 1012.17 949.486 992.319 924.788Z" fill="black" fill-opacity="0.1"/>
<path d="M955.546 954.346C921.134 911.535 898.082 858.69 882.148 816.387C848.51 727.33 830.422 633.453 813.276 542.433C789.896 418.93 765.461 291.305 700.693 175.321L703.878 173.664C768.867 289.923 793.248 418.042 816.849 541.82C834.269 632.619 851.862 726.442 885.554 815.004C910.671 881.096 952.73 973.323 1029.25 1011.2C1087.44 1040.32 1140.79 1021.83 1196.78 1002.12C1228.53 991.052 1265.91 985.852 1301.55 987.474C1341.91 989.36 1377.08 999.946 1402.91 1018.03C1436.17 1041.44 1453.24 1075.6 1453.95 1119.75C1454.78 1169.68 1429.35 1205.48 1404.79 1240.12C1371.69 1286.61 1340.61 1330.56 1380.54 1403.27L1377.35 1404.93C1336.1 1330.57 1368.06 1285.46 1401.77 1238.04C1425.99 1204.11 1451.15 1168.53 1450.43 1119.87C1449.62 1076.71 1433.21 1043.37 1401.1 1020.84C1347.12 982.915 1258.05 984.495 1197.94 1005.25C1141.18 1025.13 1087.28 1044.06 1027.44 1014.01C999.147 1000.16 975.398 979.045 955.546 954.346Z" fill="black" fill-opacity="0.1"/>
<path d="M918.826 983.409C884.194 940.324 861.196 886.984 845.262 844.681C811.844 755.898 794.198 662.57 776.997 572.045C753.397 448.267 729.016 320.148 664.027 203.889L667.212 202.232C732.422 318.765 757.023 447.159 780.57 571.432C797.55 661.682 815.417 755.285 848.668 843.298C873.785 909.39 915.569 1001.84 992.036 1040.21C1050.67 1069.88 1103.8 1051.11 1159.78 1031.41C1191.54 1020.34 1228.92 1015.14 1264.83 1016.54C1305.19 1018.42 1340.36 1029.01 1366.46 1046.88C1399.51 1070 1417.07 1104.22 1417.51 1148.59C1418.34 1198.52 1393.12 1234.6 1368.57 1269.24C1335.46 1315.73 1304.39 1359.68 1344.09 1432.12L1340.91 1433.77C1300.15 1359.47 1331.83 1314.58 1365.54 1267.16C1389.82 1232.73 1414.92 1197.65 1413.99 1148.71C1413.17 1105.55 1396.49 1072.43 1364.38 1049.9C1310.13 1012.2 1221.05 1013.78 1161.17 1034.81C1104.41 1054.68 1050.78 1073.39 990.723 1043.07C962.427 1029.22 938.679 1008.11 918.826 983.409Z" fill="black" fill-opacity="0.1"/>
<path d="M878.513 1004.07C852.043 971.136 828.737 927.53 808.376 872.974C775.399 784.741 757.478 691.633 740.445 601.878C716.898 477.605 692.296 349.211 627.033 233.173L630.218 231.516C695.923 348.103 720.47 476.992 744.017 601.265C761.051 691.02 778.751 783.853 811.728 872.087C879.063 1051.96 978.18 1112.33 1122.68 1061.68C1154.71 1050.39 1192.09 1045.19 1227.73 1046.81C1268.37 1048.48 1303.53 1059.06 1329.63 1076.93C1362.95 1099.84 1380.02 1134 1380.95 1178.43C1382 1228.63 1356.57 1264.43 1331.74 1299.29C1298.64 1345.78 1267.56 1389.73 1306.77 1462.11L1303.58 1463.77C1263.33 1389.52 1295.23 1344.91 1328.71 1297.21C1352.99 1262.79 1378.37 1227.48 1377.21 1178.27C1376.4 1135.11 1359.49 1101.71 1327.33 1079.68C1287.73 1052.34 1207.14 1035.81 1123.57 1065.03C1020.77 1100.68 940.718 1081.46 878.513 1004.07Z" fill="black" fill-opacity="0.1"/>
<path d="M842.234 1033.68C815.544 1000.47 792.018 956.593 771.49 901.268C738.734 813.309 720.979 720.971 704.166 631.49C680.399 506.943 656.072 378.328 590.367 261.741L593.553 260.084C659.973 377 684.246 506.109 707.739 630.877C724.552 720.358 742.306 812.696 774.842 900.381C842.344 1081.02 941.187 1141.61 1085.69 1090.96C1145.3 1070.15 1235.42 1065.93 1292.69 1105.72C1326.01 1128.63 1343.36 1162.57 1344.29 1207C1345.61 1256.98 1320.13 1293.27 1295.3 1328.14C1262.19 1374.62 1231.12 1418.57 1269.88 1490.41L1266.7 1492.07C1227.16 1418.14 1258.84 1373.26 1292.27 1326.05C1316.55 1291.63 1341.71 1256.05 1340.77 1207.11C1339.68 1164.17 1322.78 1130.78 1290.61 1108.75C1251.01 1081.4 1170.36 1065.36 1086.8 1094.59C984.27 1130.02 904.219 1110.79 842.234 1033.68Z" fill="black" fill-opacity="0.1"/>
<path d="M805.294 1062.47C778.604 1029.26 755.078 985.382 734.603 929.562C702.288 842.152 684.755 750.088 667.667 660.828C643.954 535.786 619.406 406.897 553.207 290.256L556.392 288.599C623.033 405.788 647.747 535.447 671.461 660.489C688.327 749.475 705.641 841.264 738.23 928.454C805.899 1109.87 904.467 1170.68 1048.91 1120.52C1108.53 1099.71 1198.92 1095.27 1256.25 1134.56C1289.35 1157.19 1306.91 1191.41 1308.12 1235.62C1309.66 1285.87 1283.96 1321.89 1259.35 1357.03C1226.24 1403.52 1195.17 1447.47 1233.44 1519.25L1230.25 1520.91C1190.93 1447.26 1222.61 1402.37 1256.32 1354.95C1280.6 1320.53 1306.03 1284.73 1304.6 1235.74C1303.29 1192.52 1286.33 1159.62 1254.17 1137.59C1214.57 1110.24 1133.64 1094.43 1049.8 1123.87C970.903 1151.61 905.895 1146.04 851.532 1107.07C835.283 1095.28 819.853 1080.58 805.294 1062.47Z" fill="black" fill-opacity="0.1"/>
<path d="M768.796 1091.81C742.105 1058.6 718.633 1014.22 697.938 958.13C665.843 870.994 648.256 779.426 631.609 690.714C607.896 565.672 583.402 436.288 516.487 319.319L519.673 317.662C586.808 434.906 611.248 564.785 635.182 690.101C652.103 778.592 669.196 870.107 701.344 956.748C768.684 1138.88 867.419 1200.45 1011.92 1149.81C1071.81 1128.77 1162.2 1124.33 1219.53 1163.62C1252.63 1186.26 1269.97 1220.2 1271.67 1264.46C1273.44 1314.99 1247.73 1351.01 1222.85 1386.37C1190.02 1432.64 1158.94 1476.59 1196.72 1548.31L1193.53 1549.97C1154.71 1476.38 1186.61 1431.76 1219.82 1384.29C1244.37 1349.64 1269.53 1314.06 1267.88 1264.8C1266.29 1221.8 1249.61 1188.68 1217.45 1166.65C1161.05 1127.96 1071.87 1132.79 1012.81 1153.16C933.909 1180.89 869.175 1175.1 814.592 1135.86C798.343 1124.07 783.134 1109.64 768.796 1091.81Z" fill="black" fill-opacity="0.1"/>
<path d="M732.297 1121.14C705.385 1087.66 681.692 1043.01 661.051 986.424C629.398 899.837 612.031 808.543 595.331 720.326C571.671 594.789 546.957 465.131 479.821 347.887L483.007 346.23C550.638 463.528 575.023 593.902 598.904 719.713C615.604 807.93 632.75 898.95 664.457 985.042C695.997 1070.36 733.523 1128.29 779.734 1161.62C833.328 1200.75 897.071 1206.43 974.926 1179.09C1034.81 1158.06 1125.48 1153.39 1183.08 1192.47C1216.18 1215.1 1233.8 1248.82 1235.5 1293.08C1237.27 1343.61 1211.78 1379.91 1186.68 1414.99C1153.85 1461.26 1122.77 1505.21 1160.05 1576.88L1156.87 1578.54C1118.76 1505.27 1150.16 1460.61 1183.87 1413.18C1208.42 1378.54 1233.86 1342.74 1231.98 1293.2C1230.4 1250.2 1213.22 1217.03 1181.28 1195.27C1125.1 1156.86 1035.43 1161.63 976.308 1182.5C898.728 1209.62 832.015 1203.62 777.926 1164.42C761.349 1153.35 746.414 1138.71 732.297 1121.14Z" fill="black" fill-opacity="0.1"/>
<path d="M695.798 1150.48C668.666 1116.73 644.973 1072.08 624.111 1015.21C592.404 929.121 575.478 838.376 558.724 750.654C534.844 624.843 510.458 494.469 442.774 377.666L445.959 376.009C513.81 493.581 538.691 624.009 562.518 750.315C579.051 837.762 595.977 928.508 627.684 1014.6C658.95 1100.14 696.475 1158.07 742.633 1191.89C796.447 1231.3 860.411 1237.26 937.991 1210.13C998.374 1189.15 1089.09 1184 1146.2 1223.01C1179.08 1245.37 1196.92 1279.37 1198.89 1323.41C1201.16 1373.99 1175.17 1410.24 1150.29 1445.59C1117.46 1491.86 1086.38 1535.81 1123.23 1606.94L1120.04 1608.59C1082.15 1535.6 1113.83 1490.71 1147.26 1443.51C1171.82 1408.87 1197.25 1373.07 1195.37 1323.53C1193.79 1280.53 1176.34 1247.58 1144.4 1225.82C1087.94 1187.63 998.492 1192.67 939.153 1213.27C861.573 1240.39 794.639 1234.11 740.825 1194.7C724.409 1182.14 709.694 1167.77 695.798 1150.48Z" fill="black" fill-opacity="0.1"/>
<path d="M659.132 1179.05C631.779 1145.02 607.92 1099.6 587.004 1043.23C555.518 957.415 538.538 867.164 522.226 779.992C498.399 653.685 474.013 523.311 405.613 406.181L408.798 404.524C477.365 522.424 501.972 653.072 525.798 779.379C542.111 866.551 559.365 956.581 590.356 1042.35C621.622 1127.89 659.148 1185.81 705.031 1219.86C758.791 1259.76 822.755 1265.72 900.335 1238.59C960.718 1217.61 1051.71 1212.24 1109.1 1251.03C1141.98 1273.39 1159.87 1306.89 1161.79 1351.43C1164.05 1402.01 1138.29 1438.53 1113.41 1473.89C1080.58 1520.15 1049.5 1564.11 1086.12 1634.96L1082.93 1636.61C1045.54 1563.68 1077.16 1519.28 1110.6 1472.08C1135.43 1437.22 1160.64 1401.14 1158.49 1351.82C1156.41 1308.77 1139.18 1276.09 1107.23 1254.34C1051 1216.42 961.277 1221.68 901.664 1242.5C801.501 1276.93 721.337 1256.44 659.132 1179.05Z" fill="black" fill-opacity="0.1"/>
<path d="M622.579 1208.88C595.006 1174.58 570.926 1128.89 550.339 1071.8C519.293 986.532 502.534 896.556 486.168 809.878C462.121 683.298 437.789 552.428 369.168 435.023L372.133 433.092C441.195 551.046 465.747 682.189 489.52 808.991C505.886 895.668 522.92 985.424 553.745 1070.42C584.736 1156.18 622.261 1214.11 668.091 1248.64C721.135 1288.22 787.026 1294.89 863.562 1268.15C924.219 1246.95 1015.43 1241.85 1072.38 1280.1C1105.26 1302.46 1123.15 1335.96 1125.34 1380.27C1127.82 1431.13 1102.06 1467.65 1076.91 1503.23C1044.08 1549.49 1013.27 1593.22 1049.12 1664.24L1045.94 1665.9C1009.26 1593.29 1040.66 1548.62 1074.1 1501.42C1098.93 1466.55 1124.41 1430.26 1121.77 1380.89C1119.69 1337.83 1102.46 1305.16 1070.24 1283.62C1014.01 1245.7 924.283 1250.97 864.395 1272C764.727 1306.49 684.563 1286 622.579 1208.88Z" fill="black" fill-opacity="0.1"/>
<path d="M586.301 1238.5C558.507 1203.92 534.206 1157.95 513.452 1100.09C482.628 1015.1 466.035 925.894 449.669 839.216C425.896 712.415 401.123 580.997 332.007 463.538L334.972 461.607C404.255 579.835 429.028 711.253 453.021 838.329C469.167 924.732 486.034 1013.72 516.638 1098.44C582.827 1281.94 684.209 1346.81 826.347 1297.16C887.004 1275.96 978.766 1270.42 1035.71 1308.67C1068.87 1330.8 1086.48 1364.53 1088.95 1408.62C1091.71 1459.26 1065.67 1495.99 1040.52 1531.57C1007.68 1577.84 976.883 1621.57 1012.29 1692.04L1009.11 1693.7C972.648 1621.36 1004.05 1576.69 1037.49 1529.49C1062.32 1494.63 1087.8 1458.33 1085.43 1408.74C1083.08 1365.91 1065.85 1333.23 1033.63 1311.69C977.619 1274.05 887.617 1279.53 827.235 1300.51C727.954 1336.05 648.064 1315.34 586.301 1238.5Z" fill="black" fill-opacity="0.1"/>
<path d="M549.802 1267.83C521.787 1232.98 497.541 1186.52 476.566 1128.39C446.183 1043.94 429.316 954.957 413.39 868.828C389.397 741.753 364.898 610.114 295.067 492.327L298.032 490.395C367.809 608.677 392.529 740.59 416.468 868.161C432.668 954.069 449.314 1042.78 479.477 1126.95C545.612 1310.95 646.666 1376.54 788.804 1326.89C849.736 1305.47 941.497 1299.92 998.443 1338.17C1031.38 1360.03 1049.27 1393.54 1051.74 1437.63C1054.71 1488.54 1028.68 1525.28 1003.52 1560.86C970.691 1607.12 939.889 1650.85 974.804 1721.27L971.618 1722.93C935.654 1650.64 967.279 1606.25 1000.71 1559.05C1025.32 1523.91 1051.3 1487.67 1048.44 1438.02C1046.08 1395.19 1028.36 1362.46 996.635 1340.98C940.846 1303.61 850.349 1309.04 790.187 1330.29C690.96 1365.33 611.565 1344.67 549.802 1267.83Z" fill="black" fill-opacity="0.1"/>
<path d="M513.249 1297.67C485.014 1262.54 460.547 1215.8 439.405 1156.9C409.243 1072.73 392.817 984.295 376.563 898.882C352.624 771.311 327.904 639.398 258.073 521.611L261.038 519.679C331.311 638.015 355.976 770.423 380.136 898.268C396.39 983.682 412.815 1072.12 442.758 1156.02C508.785 1341.01 610.059 1406.87 752.198 1357.21C785.273 1345.54 822.981 1339.62 858.724 1340.25C900.241 1340.76 936.005 1350.41 962.385 1368.06C995.318 1389.92 1013.21 1423.42 1015.95 1467.3C1018.93 1518.21 993.116 1555.22 967.959 1590.8C935.128 1637.06 904.326 1680.8 939.02 1750.93L935.835 1752.59C900.587 1680.64 931.717 1636.19 965.15 1588.99C990.033 1553.63 1015.52 1517.34 1012.65 1467.69C1010.08 1424.58 992.574 1392.13 960.577 1370.87C904.514 1333.71 814.237 1339.42 753.855 1360.4C654.461 1394.67 575.013 1374.51 513.249 1297.67Z" fill="black" fill-opacity="0.1"/>
<path d="M476.309 1326.45C448.074 1291.33 423.827 1244.86 402.74 1185.47C373.018 1101.85 356.538 1013.91 340.505 928.768C316.345 800.923 291.68 668.515 221.353 550.674L224.318 548.743C294.811 667.353 319.972 799.815 344.078 928.155C359.891 1013.02 376.37 1100.96 406.092 1184.58C472.066 1370.07 573.286 1436.43 715.15 1386.99C803.389 1356.27 884.307 1369.83 925.391 1397.34C958.324 1419.2 976.492 1452.49 979.233 1496.36C982.705 1547.32 956.396 1584.28 931.185 1620.36C898.355 1666.62 867.827 1710.13 901.806 1779.94L898.62 1781.6C863.592 1709.92 894.997 1665.26 928.156 1618.27C953.039 1582.91 978.799 1546.4 975.44 1496.7C972.591 1453.81 955.085 1421.36 923.309 1400.37C867.245 1363.22 779.003 1368.65 716.258 1390.62C638.678 1417.74 571.631 1410.2 517.37 1367.99C502.661 1355.87 489.103 1342.37 476.309 1326.45Z" fill="black" fill-opacity="0.1"/>
<path d="M439.589 1355.52C411.355 1320.39 386.941 1273.16 365.633 1213.49C336.132 1130.14 319.599 1042.7 304.007 958.106C279.9 829.766 255.235 697.357 184.193 579.188L187.158 577.257C258.367 696.196 283.253 828.878 307.084 957.439C322.951 1041.81 339.21 1129.48 368.764 1212.33C434.63 1398.8 535.577 1465.38 677.715 1415.73C741.504 1393.37 831.231 1388.1 888.284 1425.36C920.997 1446.95 939.165 1480.23 942.126 1524.38C945.598 1575.34 919.51 1612.58 894.078 1648.38C861.522 1694.42 830.72 1738.15 864.204 1807.91L861.018 1809.57C826.486 1737.94 857.837 1693.77 891.27 1646.57C916.153 1611.21 941.912 1574.69 938.607 1524.5C935.759 1481.61 917.978 1449.38 886.202 1428.39C830.139 1391.24 741.622 1396.89 678.877 1418.86C601.297 1445.98 534.303 1437.95 479.823 1395.46C465.721 1384.66 452.383 1371.43 439.589 1355.52Z" fill="black" fill-opacity="0.1"/>
<path d="M404.026 1385.46C375.35 1349.78 350.275 1301.73 329.462 1242.11C300.402 1159.31 284.089 1072.14 268.444 988.046C244.612 859.486 219.505 726.529 148.243 608.085L151.207 606.154C222.911 725.146 247.743 858.324 271.796 987.159C287.442 1071.25 303.808 1157.93 332.868 1240.73C362.703 1325.62 400.674 1386.35 445.627 1422.04C499.392 1464.2 565.121 1472.35 641.657 1445.62C705.446 1423.25 795.722 1417.55 852.501 1455.03C885.213 1476.62 903.381 1509.9 906.617 1553.82C910.31 1605.06 884.222 1642.3 858.79 1678.1C826.234 1724.14 795.432 1767.87 828.695 1837.35L825.51 1839.01C791.418 1767.94 822.823 1723.27 855.982 1676.29C880.864 1640.93 906.898 1604.19 903.319 1554.22C900.196 1511.55 882.69 1479.1 850.639 1458.33C794.796 1421.45 706.005 1427.32 642.765 1449.24C565.185 1476.37 498.192 1468.33 443.544 1425.07C429.222 1413.99 416.379 1400.83 404.026 1385.46Z" fill="black" fill-opacity="0.1"/>
<path d="M367.527 1414.8C338.631 1378.85 313.335 1330.52 292.576 1270.41C263.737 1187.88 247.59 1101.48 231.67 1017.6C207.618 888.769 182.565 755.317 110.807 636.82L113.772 634.889C185.971 753.935 210.749 887.607 235.022 1016.72C250.722 1100.32 266.868 1186.72 295.487 1268.97C325.321 1353.86 363.018 1414.81 407.971 1450.5C461.682 1493.16 527.411 1501.31 603.947 1474.57C668.231 1452.26 758.287 1446.28 815.066 1483.76C847.778 1505.35 866.221 1538.41 869.456 1582.34C873.149 1633.58 847.061 1670.81 821.575 1707.11C789.019 1753.15 758.217 1796.88 791.26 1866.09L788.074 1867.75C754.478 1796.73 785.608 1752.28 818.767 1705.3C843.924 1669.72 869.738 1632.71 865.884 1582.95C862.54 1540.01 844.76 1507.78 813.204 1487.06C757.307 1450.68 668.516 1456.55 605.276 1478.47C527.696 1505.6 460.757 1497.06 406.109 1453.8C392.502 1443.06 379.66 1429.89 367.527 1414.8Z" fill="black" fill-opacity="0.1"/>
<path d="M330.534 1444.08C301.417 1407.86 276.395 1359.3 255.195 1298.65C226.796 1216.67 210.376 1130.49 194.897 1047.16C170.898 917.833 145.846 784.381 73.593 665.829L76.5579 663.898C149.252 782.998 174.251 916.945 198.47 1046.55C213.949 1129.88 230.149 1215.78 258.326 1297.48C287.886 1382.59 325.584 1443.54 370.482 1479.73C424.14 1522.88 490.364 1531.09 566.625 1504.57C630.909 1482.26 721.239 1476.06 778.072 1513.04C810.564 1534.36 829.006 1567.42 832.737 1611.4C836.925 1662.7 810.562 1700.15 785.077 1736.44C752.52 1782.49 722.213 1826.27 754.045 1895.1L750.86 1896.76C717.979 1826.06 749.109 1781.62 782.047 1734.36C807.205 1698.78 833.018 1661.77 828.944 1611.74C825.326 1569.02 807.545 1536.79 775.989 1516.07C720.093 1479.69 631.027 1485.78 567.513 1507.92C489.933 1535.05 422.993 1526.51 368.179 1482.48C355.562 1471.85 342.666 1459.17 330.534 1444.08Z" fill="black" fill-opacity="0.1"/>
<path d="M294.309 1473.2C264.971 1436.7 239.729 1387.87 218.529 1327.22C190.351 1245.51 174.372 1159.88 158.839 1077.05C134.62 947.445 109.621 813.498 37.1478 694.672L40.1126 692.741C113.027 812.115 138.247 946.337 162.412 1076.44C177.945 1159.27 193.703 1244.63 221.935 1325.83C258.913 1432.53 308.947 1502.09 370.327 1531.8C416.238 1554.08 470.238 1554.94 529.852 1534.13C594.41 1511.6 684.961 1505.67 741.573 1542.38C774.339 1563.48 792.781 1596.54 796.512 1640.52C800.7 1691.81 774.558 1729.54 749.073 1765.83C716.737 1812.15 686.209 1855.66 717.821 1924.22L714.635 1925.87C681.975 1855.45 713.105 1811.01 746.264 1764.03C771.201 1728.17 797.509 1691.21 793.214 1640.91C789.596 1598.19 771.816 1565.96 739.985 1545.47C684.309 1509.36 594.969 1515.67 531.455 1537.81C470.797 1559.01 416.028 1558.31 369.181 1535.43C341.601 1521.92 316.809 1501.19 294.309 1473.2Z" fill="black" fill-opacity="0.1"/>
<path d="M257.536 1502.76C228.198 1466.26 202.735 1417.16 181.643 1355.51C153.632 1274.58 137.873 1189.22 122.561 1106.66C98.3956 976.562 73.1762 842.34 0.207886 723.461L3.17275 721.53C76.5822 840.958 101.748 975.674 125.913 1105.77C141.005 1188.06 157.038 1273.19 185.049 1354.13C221.973 1461.32 272.228 1531.15 333.829 1561.14C379.74 1583.41 433.244 1584.23 493.078 1563.69C526.923 1551.84 565.18 1545.48 600.262 1545.29C642.107 1545.09 678.42 1554.3 704.854 1571.45C737.62 1592.54 756.062 1625.6 760.067 1669.36C764.75 1720.71 738.113 1758.38 712.628 1794.68C680.292 1841 649.765 1884.51 681.155 1952.78L677.97 1954.44C645.804 1884.08 678.414 1837.54 709.819 1792.87C735.03 1756.79 761.064 1720.06 756.769 1669.75C753.151 1627.04 735.096 1595.02 703.266 1574.53C647.811 1538.7 558.47 1545.01 494.187 1567.31C433.804 1588.29 379.309 1587.37 332.187 1564.72C305.102 1551.25 280.035 1530.75 257.536 1502.76Z" fill="black" fill-opacity="0.1"/>
</svg>
