<svg width="1536" height="2571" viewBox="0 0 1536 2571" fill="none" xmlns="http://www.w3.org/2000/svg">
<path d="M910.928 1312.5C838.244 1365.29 761.909 1436.86 681.015 1528.47C557.121 1668.63 453.525 1817.94 353.559 1962.23C211.479 2167.56 64.2664 2379.61 -144.49 2567.07L-140.458 2570.12C69.178 2382.62 216.419 2169.35 359.094 1963.58C459.06 1819.3 562.061 1670.42 685.642 1531.08C808.317 1393 918.812 1300.8 1023.97 1250.12C1146.31 1190.53 1258.59 1187.23 1367.83 1239.91C1451.86 1280.42 1601.18 1296.81 1730.25 1237.71C1804.56 1203.45 1861.75 1149.38 1900.62 1076.34C1944.71 992.951 1931.2 930.488 1917.34 870.064C1899.53 790.411 1882.8 714.753 2004.07 599.796L2000.04 596.751C1876.08 714.262 1892.78 791.136 1911.13 872.785C1924.41 932.427 1938.24 994.066 1894.78 1075.81C1857.12 1146.76 1801.13 1199.98 1729.48 1232.9C1603.36 1291.05 1455.8 1274.57 1372.93 1234.41C1263.98 1182.12 1146.42 1185.67 1023.2 1245.3C986.196 1262.02 949.058 1284.81 910.928 1312.5Z" fill="white" fill-opacity="0.1"/>
<path d="M873.154 1260.49C799.874 1313.72 723.538 1385.29 642.048 1477.32C518.466 1616.66 416.062 1765.11 316.407 1908.57C173.732 2114.34 26.4915 2327.6 -182.833 2514.28L-178.801 2517.33C31.4308 2329.39 179.551 2116.08 322.538 1909.49C421.597 1766.46 524.001 1618.02 647.583 1478.68C769.974 1340.21 880.469 1248.01 985.934 1196.5C1108.88 1136.48 1221.75 1132.75 1330.7 1185.03C1415.61 1225.51 1564.62 1242.72 1692.82 1183.67C1766.53 1149.84 1824.32 1095.33 1863.47 1022.68C1908.44 939.251 1894.05 876.83 1880.79 815.974C1862.98 736.321 1846.25 660.662 1966.33 546.571L1962.29 543.526C1838.93 660.604 1855.91 737.869 1873.98 819.128C1887.26 878.769 1901.09 940.408 1857.62 1022.15C1819.97 1093.1 1763.69 1145.93 1692.05 1178.85C1565.64 1236.61 1418.67 1219.7 1335.21 1179.97C1226.26 1127.68 1108.11 1131.66 985.165 1191.68C947.23 1210.87 910.687 1233.23 873.154 1260.49Z" fill="white" fill-opacity="0.1"/>
<path d="M834.471 1209.74C760.595 1263.39 683.353 1336.22 602.175 1427.44C479.188 1566.34 377.095 1713.96 278.633 1856.56C135.646 2063.15 -11.5951 2276.42 -222.395 2463.57L-218.363 2466.61C-6.65579 2278.21 141.181 2064.51 284.168 1857.91C382.631 1715.32 485.008 1568.09 607.114 1429.22C729.504 1290.75 840 1198.56 945.181 1146.65C1068.44 1085.81 1181.31 1082.08 1290.26 1134.36C1375.17 1174.84 1524.46 1192.44 1652.94 1133.78C1726.66 1099.95 1784.13 1046.26 1823.6 972.796C1868.57 889.362 1854.77 826.509 1841.51 765.652C1823.7 686 1806.97 610.341 1926.45 496.682L1922.42 493.637C1799.93 610.674 1817.23 687.115 1835.3 768.373C1848.87 828.406 1862.1 890.478 1818.35 971.831C1779.82 1042.82 1724.13 1095.21 1652.49 1128.14C1526.67 1185.46 1379.42 1168.16 1295.68 1128.04C1154.53 1061.51 1002.48 1087.72 834.471 1209.74Z" fill="white" fill-opacity="0.1"/>
<path d="M797.008 1156.9C722.536 1210.99 644.698 1284.25 563.492 1376.68C441.697 1514.72 340.2 1661.91 242.049 1803.68C98.4664 2010.71 -49.0859 2224.8 -260.482 2412.38L-257.046 2415.86C-44.4584 2227.41 103.69 2012.89 246.988 1805.47C345.139 1663.7 446.921 1516.9 568.12 1379.29C690.226 1240.43 800.721 1148.23 906.214 1095.51C1027.99 1035.14 1144.69 1030.42 1252.2 1081.96C1337.4 1122.83 1487.29 1140 1614.57 1082.2C1688.29 1048.37 1745.76 994.684 1785.51 921.61C1831.07 837.743 1817.28 774.89 1803.73 713.642C1785.92 633.989 1769.48 558.722 1887.8 444.714L1883.76 441.669C1762.75 558.231 1779.45 635.105 1797.52 716.363C1811.09 776.396 1824.6 838.859 1779.98 920.254C1741.44 991.248 1685.76 1043.64 1613.83 1076.17C1488.02 1133.49 1340.77 1116.2 1256.74 1075.68C1116.47 1009.1 964.42 1035.31 797.008 1156.9Z" fill="white" fill-opacity="0.1"/>
<path d="M759.829 1104.46C684.762 1158.98 606.327 1232.67 524.214 1326.36C403.015 1463.97 302.426 1609.9 204.274 1751.67C60.9757 1959.09 -87.7683 2174.04 -300.044 2361.67L-296.608 2365.15C-83.4248 2176.27 65.3191 1961.31 209.214 1753.46C306.769 1612.12 407.643 1466.58 528.246 1329.41C789.306 1032.28 1013.3 934.706 1212.95 1030.42C1298.15 1071.29 1448.6 1089.25 1575.89 1031.45C1649.89 998.009 1707.08 943.93 1747.11 871.247C1792.96 787.771 1778.88 724.527 1765.34 663.279C1747.53 583.627 1731.08 508.359 1848.21 395.216L1844.18 392.171C1723.76 508.301 1740.46 585.174 1758.53 666.433C1772.1 726.466 1785.61 788.928 1741.27 870.714C1702.45 941.317 1646.77 993.707 1574.84 1026.24C1449.62 1083.13 1302.09 1065.44 1217.18 1024.97C1078.41 956.703 926.645 983.303 759.829 1104.46Z" fill="white" fill-opacity="0.1"/>
<path d="M722.054 1052.45C646.391 1107.4 567.645 1181.92 484.936 1276.04C364.929 1412.78 264.055 1558.32 167.095 1699.23C23.2008 1907.08 -125.259 2122.42 -339.01 2310.52L-335.574 2314C-121.511 2125.08 27.5443 1909.3 171.751 1700.63C268.994 1560.11 369.272 1415 488.684 1278.69C750.056 980.742 974.072 881.955 1173.73 977.674C1259.21 1018.93 1409.66 1036.89 1536.95 979.085C1610.36 946.082 1667.83 892.394 1707.86 819.711C1754.31 735.803 1740.22 672.558 1726.68 611.31C1708.87 531.658 1692.43 456.39 1808.67 343.289L1804.64 340.244C1685.1 456.332 1702.4 532.773 1720.47 614.032C1733.44 674.497 1747.84 736.918 1702.61 818.746C1663.8 889.349 1607.23 941.78 1536.18 974.268C1411.56 1030.73 1263.15 1013.08 1178.83 972.174C1039.76 904.734 888.87 931.293 722.054 1052.45Z" fill="white" fill-opacity="0.1"/>
<path d="M684.591 999.617C608.332 1055 528.99 1129.95 445.374 1225.33C325.962 1361.63 226.28 1506.31 129.348 1646C-14.8582 1854.68 -163.914 2070.46 -377.665 2258.56L-374.229 2262.03C-159.286 2073.07 -9.91888 1856.47 134.883 1647.36C231.815 1507.67 331.497 1362.99 450.313 1227.12C712.309 927.517 936.921 828.298 1136.58 924.016C1182.94 946.496 1241.81 959.889 1302.68 962.265C1373.21 965.398 1441.46 952.864 1500.37 926.21C1573.77 893.206 1631.24 839.518 1671.56 767.226C1718.01 683.318 1704.52 619.641 1690.98 558.393C1673.17 478.74 1656.72 403.473 1772.37 290.805L1768.34 287.76C1650.28 403.373 1666.7 479.856 1684.76 561.114C1698.02 621.971 1711.54 684.433 1666.31 766.261C1626.9 837.297 1570.93 889.295 1499.6 921.392C1374.7 977.463 1226.88 959.382 1141.97 918.907C1001.98 852.723 851.407 878.459 684.591 999.617Z" fill="white" fill-opacity="0.1"/>
<path d="M645.624 948.472C569.366 1003.86 490.62 1078.37 406.691 1174.57C288.471 1310.02 189.101 1453.87 92.7646 1593.13C-52.0373 1802.23 -201.405 2018.84 -416.036 2206.98L-412.6 2210.46C-197.061 2021.06 -46.8141 1804.41 98.2997 1594.48C194.04 1455.66 293.41 1311.8 411.63 1176.36C673.938 875.939 898.862 775.896 1098.23 871.223C1222.26 930.476 1369.95 915.799 1461.71 874.241C1535.12 841.237 1592.87 787.94 1633.19 715.648C1680.52 631.698 1666.15 568.063 1652.92 505.992C1635.11 426.339 1618.95 351.462 1733.12 239.268L1729.09 236.223C1611.63 351.404 1628.33 428.278 1646.11 509.145C1659.37 570.002 1673.17 632.855 1627.06 714.725C1587.37 785.37 1531.4 837.368 1460.66 869.032C1335.76 925.104 1191.15 907.68 1103.06 865.332C994.101 813.051 874.733 819.106 748.755 883.723C714.055 902.355 680.179 923.375 645.624 948.472Z" fill="white" fill-opacity="0.1"/>
<path d="M607.254 896.894C530.995 952.281 451.341 1028.05 366.817 1124.69C249.193 1259.69 150.135 1402.72 54.99 1541.12C-90.1238 1751.05 -239.491 1967.65 -455.598 2156.27L-452.162 2159.74C-235.148 1969.87 -85.1845 1752.84 59.6453 1542.52C155.074 1404.51 253.848 1261.09 371.161 1126.91C634.092 824.836 858.732 724.402 1058.39 820.12C1147.93 863.208 1295.18 880.507 1421.84 824.352C1494.65 791.782 1552.4 738.485 1593.32 665.76C1640.64 581.81 1626.87 517.742 1613.04 456.103C1595.52 376.842 1579.07 301.574 1692.37 189.422L1688.34 186.377C1571.75 301.516 1588.76 377.566 1606.83 458.825C1620.09 519.681 1633.89 582.534 1587.47 665.228C1547.78 735.872 1491.52 787.48 1420.79 819.144C1295.88 875.215 1150.99 857.4 1062.9 815.053C953.943 762.772 834.263 769.651 707.69 834.7C675.089 851.21 641.809 871.797 607.254 896.894Z" fill="white" fill-opacity="0.1"/>
<path d="M571.55 843.977C494.1 900.228 412.659 977.299 329.015 1073.89C212.582 1208.03 114.119 1350.63 19.2863 1488.2C-125.543 1698.52 -276.102 1915.99 -492.805 2105.04L-489.369 2108.52C-271.475 1918.6 -121.2 1700.74 24.2257 1489.99C119.058 1352.42 217.21 1210.65 333.642 1076.5C453.082 938.98 566.611 842.188 671.564 787.466C796.661 722.891 914.298 715.704 1021.8 767.244C1111.34 810.332 1259.16 828.413 1385.54 771.868C1458.35 739.297 1516.1 686 1557.3 613.666C1605.22 529.284 1591.45 465.215 1577.62 403.577C1560.1 324.315 1543.65 249.047 1656.35 137.328L1652.32 134.283C1536.93 248.557 1553.63 325.43 1571.41 406.298C1584.67 467.154 1598.75 530.399 1552.05 612.701C1512.07 682.954 1456.1 734.953 1385.08 766.226C1260.77 821.865 1115.6 803.659 1026.63 761.353C917.671 709.072 797.992 715.951 670.511 782.257C637.314 799.2 604.914 819.745 571.55 843.977Z" fill="white" fill-opacity="0.1"/>
<path d="M533.775 791.966C455.729 848.651 373.692 926.154 289.737 1023.57C173.9 1157.28 76.3441 1298.62 -18.7727 1435.8C-164.198 1646.55 -315.069 1864.84 -532.651 2053.93L-529.215 2057.41C-310.441 1867.46 -159.855 1648.77 -13.8334 1437.59C80.6877 1300.84 178.243 1159.5 293.484 1026.22C412.923 888.7 526.169 791.517 631.121 736.795C756.531 671.396 874.167 664.209 981.674 715.75C1072.09 758.796 1219.31 777.31 1345.69 720.764C1418.5 688.193 1476.54 635.287 1517.74 562.953C1565.66 478.571 1551.89 414.503 1538.37 352.041C1520.85 272.779 1504.4 197.511 1616.51 86.2245L1612.48 83.1794C1497.96 197.412 1514.38 273.894 1532.16 354.762C1545.7 416.009 1559.19 479.686 1512.21 561.598C1471.63 632.284 1415.38 683.891 1345.24 715.123C1221.24 769.937 1076.06 751.731 987.092 709.426C878.137 657.145 758.145 664.848 630.664 731.154C598.943 747.622 566.543 768.167 533.775 791.966Z" fill="white" fill-opacity="0.1"/>
<path d="M495.121 739.997C416.479 797.115 334.726 875.009 249.579 973.288C134.933 1106.13 37.0939 1247.08 -56.8314 1383.4C-202.569 1594.97 -353.439 1813.27 -571.901 2002.4L-568.465 2005.88C-348.812 1815.88 -197.629 1596.76 -51.2964 1384.75C42.6289 1248.44 139.873 1107.92 253.922 975.51C373.077 837.597 486.323 740.414 591.587 684.868C717.309 618.645 835.824 611.417 943.048 662.566C1033.46 705.613 1180.97 724.517 1307.04 668.795C1379.25 636.657 1437.29 583.751 1479.37 511.376C1528.17 426.952 1514.11 362.493 1500.6 300.03C1483.07 220.769 1467.51 145.459 1577.26 34.6887L1573.23 31.6435C1460.19 145.401 1476.6 221.884 1493.79 303.184C1507.33 364.432 1520.82 428.109 1473.24 510.453C1432.38 580.748 1376.13 632.356 1305.99 663.587C1181.99 718.402 1036.53 699.805 947.273 657.108C838.318 604.827 718.327 612.53 589.939 680.092C559.977 696.477 527.888 716.199 495.121 739.997Z" fill="white" fill-opacity="0.1"/>
<path d="M457.63 688.378C378.392 745.928 296.044 824.255 210.896 922.535C96.8464 1054.95 0.198586 1195.03 -93.4149 1330.52C-239.748 1542.53 -390.93 1761.65 -609.988 1951.21L-606.552 1954.69C-386.303 1764.26 -234.525 1544.71 -87.8799 1331.88C5.73361 1196.39 101.786 1056.74 215.524 925.147C364.773 752.236 505.853 642.004 633.687 598.738C729.342 566.299 821.243 570.039 904.989 610.165C995.69 653.602 1143.79 672.074 1269.26 616.785C1341.76 585.038 1399.8 532.132 1441.88 459.756C1490.68 375.332 1477.22 310.44 1463.7 247.978C1446.78 168.284 1430.61 93.4069 1539.77 -16.9308L1535.73 -19.976C1423.29 93.3491 1439.71 169.832 1457.49 250.699C1470.44 312.38 1484.8 376.015 1436.63 458.792C1395.77 529.087 1339.52 580.695 1269.09 611.535C1145.69 665.917 999.943 646.928 910.69 604.232C825.496 563.365 732.432 559.277 634.705 592.623C577.13 612.337 518.399 644.242 457.63 688.378Z" fill="white" fill-opacity="0.1"/>
<path d="M419.571 635.977C340.334 693.527 257.389 772.286 171.618 872.214C58.4762 1003.37 -37.576 1143.02 -130.594 1278.08C-277.239 1490.91 -429.017 1710.46 -648.954 1900.07L-645.518 1903.54C-424.389 1713.07 -272.299 1492.7 -125.654 1279.87C-33.2325 1145.24 63.1036 1005.98 176.246 874.826C325.806 701.091 467.483 590.427 595.912 546.728C691.568 514.289 782.588 518.07 866.93 557.763C914.452 580.593 973.89 594.768 1032.98 598.443C1103.48 602.79 1172.3 591.038 1230.89 565.207C1303.39 533.46 1361.43 480.554 1403.79 408.57C1453.47 324.105 1439.13 259.254 1425.62 196.792C1408.69 117.097 1392.53 42.2206 1501.08 -67.6845L1497.05 -70.7295C1385.49 42.5539 1402.7 122.639 1419.4 199.513C1432.63 261.584 1446.72 324.829 1398.54 407.605C1357.68 477.9 1301.15 529.117 1230.72 559.957C1107.92 613.907 962.169 594.918 871.752 551.872C786.842 511.397 694.062 507.699 596.051 540.654C539.356 560.327 480.34 591.841 419.571 635.977Z" fill="white" fill-opacity="0.1"/>
</svg>
