<svg width="1536" height="1187" viewBox="0 0 1536 1187" fill="none" xmlns="http://www.w3.org/2000/svg">
<path d="M607.574 325.603C683.007 317.383 757.935 299.888 815.953 284.935C946.25 251.376 1066.32 207.5 1182.53 165.212C1333.74 110.245 1489.81 53.3505 1669.99 18.3214L1668.74 16.1249C1487.58 51.4935 1331.52 108.388 1179.8 163.41C1064.1 205.643 944 249.288 813.703 282.847C720.295 307.022 583.601 337.546 473.06 325.097C391.172 315.825 361.528 284.998 330.184 252.489L327.309 249.303C293.09 213.609 208.687 176.618 114.464 174.755C57.7352 173.705 4.88564 185.062 -42.0611 208.84C-94.2769 235.29 -107.798 264.29 -121.42 292.367C-139.456 330.956 -156.72 367.361 -276.208 388.779L-275.457 391.03C-153.496 369.11 -135.809 331.958 -116.848 292.569C-103.701 264.777 -90.1297 236.238 -39.3624 210.412C6.13595 187.259 57.4868 176.065 112.692 177.048C205.392 178.844 287.721 215.36 321.864 250.363L324.739 253.549C356.632 286.464 386.327 317.753 470.264 327.268C514.281 332.269 561.116 330.665 607.574 325.603Z" fill="white" fill-opacity="0.1"/>
<path d="M610.915 356.263C686.847 347.989 762.249 330.209 820.767 315.201C950.539 281.466 1070.16 238.106 1185.89 196.103C1337.11 141.136 1493.65 83.9563 1674.85 49.0488L1673.6 46.8523C1491.92 82.0448 1335.38 139.224 1183.17 194.3C1067.94 236.249 948.315 279.609 819.042 313.29C725.634 337.464 588.966 368.219 477.95 356.055C395.062 346.892 365.393 315.834 334.024 283.095L331.724 280.546C297.505 244.852 213.077 207.631 119.354 205.713C62.6247 204.663 9.77528 216.02 -37.1715 239.798C-89.3872 266.249 -103.408 295.302 -116.505 323.556C-134.541 362.145 -151.83 398.319 -270.294 419.859L-269.044 422.055C-147.608 399.959 -129.92 362.807 -111.434 323.703C-98.2868 295.911 -84.7406 267.142 -33.4737 241.261C12.0497 218.339 63.4006 207.145 118.606 208.127C210.806 209.978 293.66 246.671 327.329 281.958L329.628 284.507C361.572 317.883 391.767 349.117 476.203 358.578C518.62 362.821 564.956 361.271 610.915 356.263Z" fill="white" fill-opacity="0.1"/>
<path d="M614.256 386.924C690.688 378.596 766.589 360.761 825.082 345.523C954.354 311.842 1072.98 268.591 1188.23 226.873C1339.93 171.621 1496.96 114.387 1678.67 79.425L1677.41 77.2286C1495.24 112.475 1337.7 169.764 1186.01 225.016C1071.28 266.91 952.63 309.931 823.857 343.557C730.448 367.732 593.305 398.771 482.289 386.608C398.903 377.499 369.208 346.21 337.314 313.295L335.59 311.384C300.846 275.513 216.918 238.237 123.169 236.089C66.4148 234.809 14.0899 246.342 -33.3815 269.943C-86.122 296.218 -99.6179 325.448 -113.214 353.756C-131.276 392.114 -148.54 428.52 -266.479 450.235L-265.229 452.432C-144.317 430.159 -126.604 393.238 -108.143 353.903C-94.9963 326.111 -81.4752 297.111 -29.6836 271.407C16.3394 248.43 67.1906 237.29 122.421 238.504C214.621 240.354 297.001 277.332 331.169 312.565L332.894 314.477C364.863 348.083 395.607 379.724 480.517 388.9C522.461 393.428 568.297 391.932 614.256 386.924Z" fill="white" fill-opacity="0.1"/>
<path d="M618.097 417.531C694.529 409.202 770.905 391.083 829.897 375.79C958.171 342.218 1076.82 299.197 1191.08 257.589C1343.27 202.282 1500.78 144.763 1683.01 109.977L1681.76 107.781C1499.05 142.852 1341.02 200.195 1188.85 255.732C1074.6 297.34 956.446 340.307 828.647 373.594C735.264 397.999 598.121 429.038 486.131 417.214C402.244 408.16 373.2 378.2 340.106 343.55L338.956 342.275C304.188 306.174 220.235 268.668 127.01 266.696C70.2562 265.415 17.9062 276.718 -29.5652 300.319C-82.3056 326.594 -96.3011 355.879 -109.898 384.186C-127.959 422.545 -145.223 458.95 -262.663 480.611L-261.412 482.808C-141.5 460.644 -123.812 423.493 -104.827 384.334C-91.7046 356.311 -77.6589 327.488 -26.3669 301.837C19.6561 278.86 70.5325 267.951 125.763 269.165C217.488 271.3 300.368 308.224 334.561 343.687L335.711 344.962C368.205 378.744 398.974 410.616 484.384 419.737C526.302 424.034 572.138 422.539 618.097 417.531Z" fill="white" fill-opacity="0.1"/>
<path d="M621.438 448.192C698.369 439.81 775.245 421.635 834.711 406.058C962.485 372.54 1080.16 329.859 1193.92 288.305C1346.58 232.713 1504.12 175.425 1686.85 140.584L1685.6 138.388C1502.37 173.283 1343.86 230.911 1191.22 286.733C1077.44 328.056 959.787 370.968 832.487 404.201C739.104 428.606 601.486 459.93 489.497 448.106C404.636 439.391 376.041 408.916 342.398 373.859L341.823 373.222C307.054 337.121 223.076 299.384 129.826 297.181C73.5716 295.846 20.7221 307.204 -26.7744 330.574C-80.0144 356.904 -94.0099 386.188 -107.082 414.672C-125.143 453.03 -142.407 489.436 -258.823 511.218L-257.572 513.415C-138.184 491.075 -120.497 453.924 -102.011 414.819C-88.8888 386.796 -74.8681 357.742 -23.0514 332.268C22.9967 309.522 74.3726 298.558 129.103 299.826C220.829 301.961 303.234 339.17 337.452 374.864L338.027 375.501C370.546 409.515 401.34 441.617 488.249 450.575C530.167 454.872 575.978 453.146 621.438 448.192Z" fill="white" fill-opacity="0.1"/>
<path d="M624.779 478.854C702.21 470.416 779.56 451.957 839.026 436.38C965.801 402.971 1082.98 360.344 1196.76 319.02C1349.92 263.374 1507.93 205.801 1691.16 170.906L1689.91 168.71C1505.68 203.713 1347.18 261.341 1194.04 317.218C1080.75 358.487 964.077 401.06 837.276 434.238C743.919 458.873 606.301 490.198 493.837 478.659C408.477 469.998 379.357 439.347 345.714 404.29C310.92 367.958 226.941 330.221 133.692 328.019C77.4375 326.684 25.0624 337.756 -22.4341 361.127C-75.6741 387.456 -89.6696 416.74 -103.241 445.279C-121.303 483.637 -138.566 520.042 -254.482 541.771L-253.232 543.967C-134.369 521.451 -116.656 484.53 -98.1701 445.426C-85.048 417.403 -71.0273 388.349 -18.7362 362.59C27.3119 339.844 78.6878 328.88 133.444 330.379C224.67 332.568 307.599 369.953 341.818 405.647C374.861 439.837 405.681 472.169 493.089 481.073C534.507 485.424 579.819 483.753 624.779 478.854Z" fill="white" fill-opacity="0.1"/>
<path d="M628.145 509.745C706.075 501.253 783.925 482.739 843.865 466.877C970.141 433.523 1086.84 391.181 1199.63 349.966C1352.77 294.089 1511.27 236.461 1695.53 201.688L1694.28 199.492C1509.52 234.319 1350.54 292.232 1196.9 348.163C1084.09 389.148 967.917 431.666 842.116 464.735C748.258 489.425 610.666 520.98 498.201 509.441C412.342 500.835 381.573 468.963 349.604 435.357C331.357 416.351 301.571 398.135 266.191 384.262C226.065 368.573 181.621 359.652 138.031 358.57C81.777 357.235 29.4021 368.308 -18.1196 391.448C-71.8843 417.601 -85.8548 447.116 -99.4262 475.654C-117.488 514.013 -134.776 550.187 -249.643 572.268L-248.393 574.464C-130.529 552.057 -112.841 514.906 -94.3553 475.801C-81.2332 447.779 -67.2377 418.494 -14.9214 392.966C31.6514 370.395 82.5278 359.486 136.759 360.809C227.985 362.998 310.44 400.668 345.183 436.538C377.702 470.552 408.521 502.884 496.929 511.679C538.347 516.03 583.185 514.644 628.145 509.745Z" fill="white" fill-opacity="0.1"/>
<path d="M631.985 540.352C710.415 531.806 788.739 513.007 848.68 497.145C974.456 463.845 1090.16 421.612 1202.47 380.682C1356.11 324.751 1515.09 266.838 1699.84 232.011L1698.59 229.814C1513.34 264.696 1353.86 322.663 1199.74 378.879C1087.94 419.755 971.732 462.042 846.93 495.003C753.073 519.693 615.506 551.478 502.567 540.224C415.708 531.727 385.439 499.801 353.47 466.195C335.223 447.188 305.437 428.973 270.032 414.869C229.906 399.18 185.462 390.26 141.847 388.947C86.0921 387.558 33.1923 398.454 -14.3042 421.825C-68.0689 447.978 -82.5389 477.547 -96.1103 506.085C-114.172 544.444 -131.46 580.619 -245.828 602.645L-244.577 604.841C-127.238 582.258 -109.525 545.337 -91.0393 506.233C-77.4429 477.925 -63.9217 448.925 -11.1059 423.342C35.4669 400.772 86.3685 390.094 140.6 391.416C231.851 393.836 314.306 431.506 348.549 467.43C381.068 501.444 411.863 533.546 500.77 542.286C542.188 546.638 587.025 545.251 631.985 540.352Z" fill="white" fill-opacity="0.1"/>
<path d="M648.139 567.984C708.085 561.452 776.371 547.946 853.495 527.412C978.271 494.221 1094 452.218 1205.33 411.628C1359.45 355.412 1518.93 297.444 1703.71 262.847L1702.46 260.651C1516.68 295.357 1356.72 353.609 1202.61 409.825C1091.28 450.416 976.047 492.364 851.27 525.555C596.797 593.173 439.121 584.228 356.386 497.601C338.115 478.365 308.328 460.149 272.949 446.276C232.797 430.356 188.353 421.436 144.739 420.123C88.9585 418.503 36.5836 429.576 -11.4376 452.77C-65.7018 478.978 -79.6722 508.493 -93.2185 537.261C-111.28 575.62 -128.569 611.795 -242.411 633.997L-241.161 636.194C-124.346 613.434 -107.133 576.568 -88.1476 537.409C-74.5511 509.101 -61.0552 479.871 -7.73983 454.233C38.833 431.663 90.2341 420.93 143.991 422.538C210.412 424.398 304.075 448.949 351.991 499.013C411.255 560.438 507.264 583.334 648.139 567.984Z" fill="white" fill-opacity="0.1"/>
<path d="M650.98 598.699C711.426 592.113 780.211 578.552 858.309 557.679C982.586 524.542 1097.34 482.879 1208.18 442.343C1362.79 386.073 1522.25 327.875 1708.02 293.169L1706.77 290.973C1519.97 325.557 1360.04 384.04 1205.45 440.54C1094.62 481.077 979.863 522.74 856.085 555.822C600.637 623.78 442.987 615.065 360.252 528.438C326.034 492.744 245.401 453.243 149.079 450.675C93.2989 449.056 40.8987 459.897 -7.12253 483.092C-61.4119 509.069 -75.8568 538.869 -89.403 567.638C-107.465 605.996 -124.753 642.171 -237.597 664.264L-236.346 666.461C-120.556 643.58 -102.843 606.659 -84.3321 567.785C-70.7356 539.477 -56.74 510.193 -3.92421 484.61C42.6737 462.27 94.0748 451.537 147.831 453.144C214.253 455.004 307.441 479.841 355.357 529.905C414.596 591.099 510.605 613.995 650.98 598.699Z" fill="white" fill-opacity="0.1"/>
<path d="M655.321 629.251C715.767 622.665 784.552 609.104 863.124 587.946C986.402 554.918 1100.66 513.31 1211.52 473.004C1366.6 416.449 1526.56 358.196 1712.86 323.667L1711.61 321.47C1524.31 356.109 1363.38 414.7 1208.29 471.256C1097.93 511.507 984.178 553.061 860.875 585.858C604.453 654.155 446.828 645.671 363.619 559.33C329.4 523.636 248.742 483.904 152.895 481.051C97.6142 479.377 44.7145 490.273 -3.33185 513.237C-58.1208 539.269 -72.0661 569.014 -86.112 597.837C-104.174 636.196 -121.462 672.371 -233.781 694.64L-232.531 696.837C-117.24 674.01 -99.5269 637.089 -81.041 597.985C-67.4446 569.677 -53.474 540.162 -0.133532 514.755C46.9639 492.361 97.8905 481.913 151.647 483.52C218.068 485.38 311.282 510.447 359.223 560.742C404.315 608.081 471.624 632.005 564.324 633.801C592.176 634.265 622.35 632.844 655.321 629.251Z" fill="white" fill-opacity="0.1"/>
<path d="M658.662 659.912C719.108 653.326 788.367 639.481 867.439 618.268C990.218 585.295 1104 543.971 1213.86 503.774C1368.95 447.219 1529.38 388.682 1716.7 354.274L1715.45 352.077C1527.63 386.54 1366.72 445.362 1211.13 501.971C1101.25 541.938 987.994 583.438 865.689 616.126C608.818 684.938 450.219 676.793 367.484 590.167C333.241 554.242 252.583 514.511 156.735 511.658C101.455 509.984 49.0546 520.826 0.483559 543.614C-54.8049 569.699 -68.7503 599.445 -82.771 628.499C-100.858 666.627 -118.146 702.801 -229.94 725.247L-228.69 727.443C-113.924 704.441 -96.7106 667.574 -77.7001 628.646C-64.1287 600.108 -50.133 570.823 3.707 545.362C50.8296 523.198 101.731 512.52 155.488 514.127C249.812 516.912 328.92 556.346 363.089 591.579C408.18 638.919 475.465 662.612 568.664 664.354C596.516 664.818 626.191 663.451 658.662 659.912Z" fill="white" fill-opacity="0.1"/>
<path d="M662.002 690.573C722.948 683.932 792.707 670.033 872.253 648.535C994.032 615.67 1107.31 574.401 1216.7 534.489C1372.26 477.649 1533.19 419.057 1721.02 384.595L1719.77 382.398C1531.42 416.685 1370.04 475.792 1213.98 532.687C1104.59 572.598 991.808 613.813 870.503 646.393C750.172 678.633 653.261 693.858 574.251 692.437C482.101 691.048 415.866 667.706 371.349 621.004C337.105 585.079 256.423 545.117 160.55 542.034C105.269 540.36 52.8442 550.971 4.27314 573.759C-51.0153 599.845 -65.4603 629.645 -78.9814 658.644C-97.0682 696.772 -114.357 732.947 -225.626 755.568L-224.376 757.765C-110.634 734.64 -92.896 697.95 -74.4101 658.846C-60.8387 630.307 -46.8683 600.792 7.47131 575.277C54.5939 553.113 106.02 542.611 159.277 544.272C253.102 547.112 332.735 586.722 366.429 622.24C410.921 668.712 480.303 693.11 572.978 694.675C600.381 695.655 630.03 694.057 662.002 690.573Z" fill="white" fill-opacity="0.1"/>
<path d="M665.343 721.235C726.789 714.539 796.548 700.64 876.594 679.088C997.899 646.508 1110.18 605.348 1219.09 565.721C1375.15 508.826 1536.53 449.719 1724.41 415.718L1723.16 413.521C1534.31 447.862 1372.4 506.793 1215.87 563.973C1107.46 603.545 995.175 644.706 873.87 677.285C753.564 709.756 656.653 724.981 577.168 723.845C484.518 722.51 417.784 699.223 373.293 652.751C338.524 616.65 258.316 576.403 162.968 573.496C108.187 571.767 55.2619 582.433 6.66575 604.99C-49.1474 630.9 -63.0676 660.876 -77.0883 689.93C-95.175 728.058 -112.464 764.233 -222.734 786.745L-221.484 788.942C-108.241 765.872 -90.5283 728.951 -72.0173 690.077C-58.446 661.539 -44.4755 632.024 9.86407 606.508C56.9867 584.345 108.438 574.073 161.695 575.734C255.544 578.804 334.678 618.469 368.872 653.933C413.364 700.404 483.246 724.748 575.895 726.083C604.722 726.208 633.871 724.664 665.343 721.235Z" fill="white" fill-opacity="0.1"/>
<path d="M669.658 751.556C731.603 744.807 802.336 730.568 881.907 709.3C1002.71 676.775 1114.52 635.9 1222.43 596.382C1378.97 539.202 1540.35 480.095 1729.25 446.215L1728 444.019C1538.13 478.238 1376.24 537.4 1219.71 594.579C1111.8 634.097 999.964 674.742 879.683 707.443C759.377 739.914 662.466 755.139 583.006 754.233C489.883 753.184 423.148 729.897 378.657 683.425C343.888 647.324 263.655 606.846 168.281 603.709C113.501 601.98 61.0501 612.361 11.9795 635.203C-43.8336 661.113 -58.2534 691.143 -72.2741 720.197C-90.3608 758.325 -107.649 794.5 -217.42 816.958L-216.17 819.155C-103.452 795.909 -86.2137 759.273 -67.7027 720.399C-54.1565 691.63 -39.6865 662.061 14.6783 636.775C62.3255 614.788 113.277 604.57 166.534 606.232C259.884 609.357 339.043 649.252 373.262 684.946C431.326 744.635 528.784 766.907 669.658 751.556Z" fill="white" fill-opacity="0.1"/>
<path d="M672.525 782.502C734.969 775.698 806.202 761.404 886.223 739.622C1006.03 707.206 1117.34 666.385 1224.77 627.152C1381.81 569.918 1543.67 510.525 1733.06 476.591L1732.31 474.34C1541.92 508.383 1379.56 567.83 1222.55 625.295C1115.11 664.527 1003.78 705.118 884.473 737.48C764.192 770.181 667.281 785.406 587.347 784.785C495.247 783.857 425.94 760.151 382.023 714.316C347.23 677.985 266.497 637.562 172.122 634.315C117.342 632.586 64.8912 642.967 15.7955 665.579C-40.5172 691.543 -54.937 721.574 -68.9326 750.858C-87.0193 788.986 -104.333 824.93 -213.554 847.795L-212.304 849.992C-100.61 826.624 -82.8722 789.934 -64.3612 751.06C-50.815 722.291 -36.37 692.491 18.5193 667.382C66.1666 645.394 117.118 635.177 170.401 637.069C263.751 640.194 342.909 680.089 377.153 716.013C434.692 775.526 532.15 797.798 672.525 782.502Z" fill="white" fill-opacity="0.1"/>
<path d="M675.367 813.218C738.31 806.359 810.043 792.011 891.037 769.889C1010.34 737.527 1120.68 697.046 1228.12 657.813C1385.13 600.348 1547.98 540.847 1737.9 507.089L1737.15 504.838C1546.26 538.936 1383.4 598.437 1225.89 655.956C1118.95 695.134 1008.59 735.385 889.787 767.693C632.542 837.712 467.948 830.22 386.388 745.099C351.595 708.768 270.811 667.883 176.437 664.637C121.631 662.678 69.2062 673.289 20.0854 695.67C-36.2524 721.404 -50.6471 751.665 -64.6426 780.949C-82.7294 819.077 -100.043 855.021 -208.265 877.777L-207.015 879.974C-95.8208 856.661 -78.0827 819.97 -59.5717 781.096C-46.0255 752.327 -31.5807 722.528 23.2836 697.188C70.9559 675.431 121.908 665.214 175.19 667.106C268.04 670.285 347.225 710.41 381.993 746.511C438.058 806.418 535.491 828.459 675.367 813.218Z" fill="white" fill-opacity="0.1"/>
<path d="M678.708 843.879C742.151 836.966 814.358 822.333 895.852 800.157C1014.16 767.904 1124.52 727.653 1230.96 688.529C1388.47 631.01 1551.3 571.278 1742.24 537.642L1741.49 535.391C1550.07 569.312 1386.74 629.098 1228.76 686.902C1122.29 725.796 1012.43 765.992 894.627 798.191C636.907 868.495 471.864 861.519 390.305 776.398C355.486 739.836 274.703 698.952 180.328 695.705C126.022 693.691 73.5716 704.072 24.4507 726.453C-32.3866 752.241 -46.7812 782.502 -60.7767 811.787C-78.8635 849.915 -96.1774 885.859 -203.875 908.791L-202.624 910.988C-91.9548 887.498 -74.7164 850.862 -56.2054 811.988C-42.1596 783.165 -28.2395 753.189 27.1495 728.025C74.8219 706.269 126.298 696.227 179.056 697.943C271.407 701.177 351.116 741.478 385.384 777.634C441.924 837.256 538.832 859.121 678.708 843.879Z" fill="white" fill-opacity="0.1"/>
<path d="M681.574 874.825C745.517 867.857 818.223 853.17 900.691 830.654C1018.5 798.455 1127.86 758.313 1233.85 719.705C1391.83 661.901 1555.16 602.115 1746.11 568.478L1745.36 566.227C1553.41 599.973 1389.61 660.043 1231.12 717.902C1125.14 756.51 1015.78 796.653 898.467 828.797C639.798 899.671 474.255 892.75 392.696 807.628C373.849 787.754 344.512 769.023 310.081 754.58C270.329 737.684 226.309 728.018 182.669 726.474C128.363 724.461 75.9126 734.841 26.7667 756.992C-30.0707 782.78 -44.965 813.096 -58.9605 842.38C-77.0473 880.508 -94.361 916.452 -201.559 939.33L-200.308 941.526C-90.6633 917.915 -72.9002 881.456 -54.3892 842.582C-40.3685 813.528 -25.9235 783.728 29.4654 758.564C77.6374 736.753 128.614 726.766 181.397 728.713C273.773 732.177 352.982 772.533 387.75 808.634C445.264 867.916 541.698 890.066 681.574 874.825Z" fill="white" fill-opacity="0.1"/>
<path d="M685.914 905.377C749.857 898.41 822.064 883.777 905.007 860.976C1021.82 828.886 1130.7 789.029 1236.19 750.475C1394.67 692.616 1558.48 632.546 1749.95 599.085L1749.2 596.834C1556.75 630.634 1392.43 690.529 1233.47 748.672C1128.48 787.172 1019.59 827.029 902.782 859.119C643.64 930.278 477.622 923.642 396.088 838.751C345.347 785.962 254.531 759.7 186.536 757.312C132.229 755.298 79.7539 765.448 30.608 787.599C-26.7541 813.211 -41.1236 843.703 -55.5936 873.272C-73.6804 911.4 -91.0193 947.114 -197.193 970.113L-195.942 972.31C-86.7967 948.753 -69.0588 912.063 -50.5227 873.419C-36.502 844.365 -22.0822 814.335 33.8314 789.347C82.0285 767.767 133.005 757.78 185.288 759.781C277.664 763.245 355.249 802.611 391.193 840.217C435.684 886.689 507.015 910.408 603.061 910.44C629.814 910.091 656.94 908.534 685.914 905.377Z" fill="white" fill-opacity="0.1"/>
<path d="M689.755 935.984C753.698 929.017 826.878 914.044 910.321 891.189C1026.63 859.154 1135.04 819.582 1239.53 781.136C1398.49 722.993 1562.29 662.922 1754.79 629.583L1754.04 627.332C1560.57 661.01 1396.27 721.136 1237.33 779.51C1132.82 817.725 1024.43 857.527 908.596 889.278C648.504 961.007 482.512 954.601 400.952 869.479C364.434 831.236 285.275 791.341 191.85 787.525C138.043 785.457 85.5676 795.607 35.9221 817.812C-21.4399 843.424 -36.3091 873.97 -50.2795 903.485C-68.3914 941.382 -85.7052 977.327 -191.354 1000.5L-190.104 1002.7C-81.4826 978.966 -64.219 942.561 -45.7081 903.687C-31.6874 874.633 -17.2677 844.603 39.1203 819.33C87.3174 797.749 138.319 787.993 190.602 789.994C282.978 793.458 360.589 833.055 396.532 870.661C441.024 917.133 512.829 940.567 609.374 940.544C634.154 940.643 660.781 939.141 689.755 935.984Z" fill="white" fill-opacity="0.1"/>
<path d="M691.571 966.578C756.514 959.502 831.193 944.366 914.11 921.335C1029.42 889.408 1137.33 849.89 1241.35 811.73C1400.28 753.356 1565.08 693.176 1758.08 659.783L1757.33 657.532C1563.33 691.034 1398.56 751.445 1239.12 809.873C1135.11 848.033 1027.67 887.266 912.36 919.193C794.103 951.907 693.796 968.435 613.462 968.791C517.941 968.935 447.211 946.084 403.294 900.249C366.775 862.006 287.566 821.65 194.166 818.064C140.359 815.996 87.8836 826.146 38.213 848.121C-19.6486 873.788 -34.5177 904.333 -48.4881 933.848C-66.6 971.746 -83.9138 1007.69 -189.063 1030.81L-187.813 1033.01C-80.1909 1009.38 -62.4529 972.693 -43.9168 934.05C-29.8961 904.996 -15.5015 874.735 40.9117 849.693C89.1339 828.343 140.111 818.356 192.419 820.588C284.295 824.106 361.931 863.934 398.399 901.716C442.89 948.187 514.695 971.622 612.215 971.259C637.494 971.304 663.596 969.626 691.571 966.578Z" fill="white" fill-opacity="0.1"/>
<path d="M694.913 997.239C760.355 990.109 835.534 974.919 918.926 951.602C1033.74 919.73 1140.67 880.552 1244.72 842.622C1404.15 784.194 1569.42 723.729 1762.94 690.512L1762.19 688.261C1567.67 721.587 1402.42 782.282 1242.49 840.765C1138.95 878.64 1032.01 917.819 917.701 949.636C799.443 982.35 699.161 999.109 618.827 999.465C522.832 999.894 452.101 977.043 408.184 931.208C371.141 892.789 292.432 852.379 199.032 848.793C145.225 846.725 92.724 856.645 43.0534 878.619C-14.8082 904.286 -29.6771 934.832 -44.122 964.631C-62.2339 1002.53 -79.5477 1038.47 -184.197 1061.54L-182.947 1063.74C-75.8498 1039.94 -58.0868 1003.48 -39.5507 964.833C-25.5551 935.549 -10.661 905.233 45.7773 880.422C94.499 859.017 145.501 849.261 197.285 851.316C288.686 855.12 366.322 894.947 402.79 932.729C447.281 979.201 519.561 1002.35 617.08 1001.99C641.335 1001.91 667.438 1000.23 694.913 997.239Z" fill="white" fill-opacity="0.1"/>
<path d="M698.779 1028.08C764.72 1020.89 839.874 1005.47 924.265 982.045C1038.08 950.282 1145.04 911.334 1248.08 873.513C1407.99 814.8 1573.27 754.335 1767.31 721.294L1766.56 719.043C1571.52 752.193 1405.76 812.943 1245.36 871.711C1142.32 909.532 1035.85 948.425 922.54 980.134C804.308 1013.08 704.025 1029.84 623.217 1030.48C526.747 1031.19 455.492 1008.16 411.601 962.561C374.558 924.142 295.823 883.501 202.897 879.63C149.59 877.507 97.0891 887.427 46.8939 909.226C-11.4924 934.716 -26.3363 965.492 -40.7812 995.292C-58.8931 1033.19 -76.7315 1068.96 -179.832 1092.32L-178.582 1094.52C-72.5091 1070.6 -54.7459 1034.14 -35.7103 995.439C-21.7147 966.155 -6.82056 935.84 50.1173 910.974C98.8641 889.8 149.866 880.043 201.65 882.099C293.052 885.902 370.712 925.96 407.205 963.973C451.697 1010.44 523.976 1033.59 622.47 1032.89C645.675 1032.46 671.303 1031.07 698.779 1028.08Z" fill="white" fill-opacity="0.1"/>
<path d="M702.094 1058.51C768.535 1051.27 844.188 1035.79 928.579 1012.37C1041.89 980.658 1147.85 941.819 1250.42 904.283C1410.83 845.515 1576.58 784.765 1771.12 751.67L1770.37 749.419C1574.83 782.623 1408.58 843.428 1247.7 902.48C1145.13 940.016 1039.67 978.801 926.829 1010.22C778.676 1051.56 657.611 1067.79 568.104 1058.18C501.105 1051.01 449.185 1029.15 414.966 993.452C377.898 954.802 298.663 914.216 206.237 910.291C152.905 907.938 100.404 917.857 50.2089 939.656C-8.17732 965.146 -23.5208 995.977 -37.9657 1025.78C-56.5771 1063.73 -73.916 1099.44 -176.517 1122.75L-175.267 1124.95C-69.6936 1101.08 -51.9304 1064.62 -33.3943 1025.98C-18.8992 996.64 -4.52972 966.148 52.9077 941.228C101.655 920.054 152.657 910.297 204.465 912.583C295.368 916.441 373.053 956.73 409.546 994.742C444.34 1031.07 496.81 1053.35 565.333 1060.58C605.727 1064.81 651.139 1064.06 702.094 1058.51Z" fill="white" fill-opacity="0.1"/>
<path d="M705.461 1089.4C771.901 1082.16 848.054 1066.63 933.394 1042.63C1045.73 1011.26 1151.2 972.48 1253.26 934.999C1414.15 875.946 1580.4 815.142 1775.47 782.222L1774.71 779.971C1578.65 813 1411.92 874.089 1251.04 933.142C1149.47 970.569 1043.98 1009.12 931.644 1040.49C783.017 1082.11 661.452 1098.39 571.446 1088.84C504.447 1081.68 453.051 1059.98 418.333 1024.34C398.936 1004.06 369.549 984.871 336.617 970.265C297.314 952.853 253.244 942.726 210.078 940.898C156.746 938.544 104.245 948.464 54.025 970.032C-4.88595 995.346 -19.7047 1026.35 -34.1496 1056.15C-52.7611 1094.1 -70.1001 1129.82 -172.202 1153.07L-170.951 1155.27C-65.9026 1131.23 -47.3162 1093.05 -29.5783 1056.35C-15.1083 1026.79 -0.713663 996.525 56.7237 971.604C105.471 950.43 156.498 940.904 208.306 943.19C298.709 947.102 376.395 987.391 413.438 1025.81C448.206 1061.91 500.651 1083.96 569.199 1091.42C609.069 1095.47 654.506 1094.95 705.461 1089.4Z" fill="white" fill-opacity="0.1"/>
</svg>
