<svg width="1536" height="1785" viewBox="0 0 1536 1785" fill="none" xmlns="http://www.w3.org/2000/svg">
<path d="M432.445 894.417C410.838 913.24 387.437 930.004 362.212 944.013C303.303 976.863 247.275 990.546 192.946 1004.2C127.174 1020.58 58.8678 1037.35 -13.33 1088.66L-14.4688 1086.03C58.8906 1034.07 127.524 1017.01 193.803 1000.55C247.804 987.188 303.326 973.584 361.4 941.098C513.081 856.762 597.836 668.5 665.377 517.323C677.9 489.394 689.652 463.224 701.17 439.429C711.114 418.455 721.502 396.007 732.007 372.371C800.92 221.448 886.541 33.5179 1050.16 -46.3704C1110.74 -75.974 1167.31 -89.0396 1222.03 -101.582C1302.67 -120.055 1378.43 -137.529 1463.96 -202.62L1465.43 -200.276C1378.74 -134.535 1302.47 -116.982 1221.68 -98.018C1167.47 -85.5548 1110.9 -72.4892 1051.15 -43.2502C889.347 35.418 804.35 222.08 735.913 372.228C725.081 396.149 715.02 418.311 704.749 439.571C693.23 463.365 681.479 489.536 669.283 517.179C612.068 644.514 543.428 797.735 432.445 894.417Z" fill="white" fill-opacity="0.1"/>
<path d="M456.299 921.798C434.364 940.907 410.963 957.671 385.738 971.679C326.977 1004.04 271.128 1017.93 217.127 1031.29C151.175 1047.47 83.0485 1064.45 10.5232 1116.04L9.38452 1113.41C82.8919 1060.96 151.705 1044.11 217.984 1027.65C271.478 1014.36 327.327 1000.47 385.254 968.48C537.441 884.064 621.869 696.087 689.589 545.116C701.964 517.678 713.716 491.508 725.234 467.714C735.178 446.739 745.566 424.291 756.398 400.371C824.625 249.32 910.246 61.3906 1073.86 -18.4977C1134.45 -48.1012 1191.34 -61.4522 1246.06 -73.9947C1326.02 -92.594 1401.78 -110.068 1487.16 -174.668L1488.63 -172.324C1402.09 -107.074 1326 -89.3152 1245.53 -70.6364C1190.81 -58.094 1134.43 -44.8224 1074.17 -15.5041C913.053 63.2906 827.728 250.238 759.291 400.386C748.458 424.307 738.07 446.754 727.799 468.014C716.608 491.523 704.857 517.693 692.481 545.131C635.773 672.387 566.954 825.402 456.299 921.798Z" fill="white" fill-opacity="0.1"/>
<path d="M480.152 949.18C458.217 968.288 434.489 985.338 409.084 999.14C350.323 1031.5 294.802 1045.1 240.98 1058.68C174.701 1075.13 106.395 1091.91 33.7218 1143.99L32.583 1141.36C106.418 1088.63 175.231 1071.77 241.837 1055.03C295.332 1041.75 350.853 1028.14 408.78 996.147C561.146 911.937 645.247 724.245 713.294 572.989C725.669 545.551 737.094 519.666 748.612 495.871C758.883 474.612 769.092 451.958 779.924 428.037C848.658 276.908 934.426 88.4869 1097.54 8.67786C1158.45 -21.2108 1215.52 -34.3557 1270.57 -47.1835C1350.53 -65.7828 1425.78 -83.1772 1511.01 -147.286L1512.48 -144.942C1426.27 -79.9778 1350.18 -62.2188 1269.71 -43.5401C1214.99 -30.9977 1158.1 -17.6468 1098.02 11.8775C936.758 91.1633 851.761 277.826 783.175 428.464C772.343 452.385 761.807 475.324 751.536 496.583C740.345 520.093 728.414 546.057 716.545 573.416C659.299 700.054 590.807 852.783 480.152 949.18Z" fill="white" fill-opacity="0.1"/>
<path d="M504.005 976.561C482.07 995.67 458.342 1012.72 432.61 1026.81C374.177 1058.88 318.328 1072.77 264.834 1086.06C198.554 1102.51 130.248 1119.29 57.2477 1171.66L56.1089 1169.03C130.271 1116.01 199.084 1099.16 265.691 1082.41C319.185 1069.13 374.199 1055.6 432.126 1023.61C584.197 940.38 668.625 752.403 736.345 601.432C748.72 573.994 760.324 548.315 771.514 524.806C781.786 503.546 792.322 480.607 802.975 456.48C871.708 305.351 957.477 116.93 1120.56 36.4239C1181.47 6.53523 1238.87 -6.89488 1294.09 -19.5167C1373.73 -37.8309 1448.98 -55.2254 1534.21 -119.334L1535.68 -116.99C1449.61 -52.5168 1373.85 -35.0432 1293.39 -16.3644C1238.34 -3.53676 1181.59 9.32309 1120.86 39.4177C960.105 118.624 874.959 305.778 806.374 456.416C795.214 480.622 784.857 503.767 774.586 525.027C763.395 548.536 751.792 574.215 739.416 601.653C683.004 727.927 614.333 880.45 504.005 976.561Z" fill="white" fill-opacity="0.1"/>
<path d="M527.531 1004.23C505.269 1023.62 481.541 1040.67 455.481 1055.04C397.048 1087.12 341.706 1100.93 288.032 1114.01C221.753 1130.47 153.119 1147.53 79.7914 1200.18L78.3253 1197.84C152.635 1144.33 221.776 1127.19 288.562 1110.65C341.729 1097.65 396.564 1083.92 454.67 1052.13C607.395 968.332 691.675 780.846 759.395 629.875C771.443 602.722 783.047 577.043 794.417 553.74C804.688 532.48 815.045 509.335 826.025 484.923C894.907 333.303 980.348 145.167 1143.43 64.6611C1204.67 34.4873 1262.07 21.057 1317.62 8.15001C1397.25 -10.1642 1472.33 -27.7644 1557.08 -91.097L1558.55 -88.7531C1472.81 -24.5649 1397.05 -7.09114 1316.91 11.3023C1261.69 23.9242 1204.79 37.275 1143.88 67.1637C983.303 146.576 898.158 333.73 829.572 484.368C818.592 508.78 808.056 531.719 797.637 553.47C786.266 576.773 774.99 602.167 762.615 629.605C706.203 755.878 638.186 907.831 527.531 1004.23Z" fill="white" fill-opacity="0.1"/>
<path d="M551.384 1031.61C529.122 1051 505.067 1068.34 478.828 1082.51C420.394 1114.58 365.38 1128.1 311.885 1141.39C242.238 1158.61 176.466 1174.99 103.317 1227.85L101.851 1225.5C176.161 1171.99 245.629 1154.57 312.594 1138.24C365.582 1125.03 420.596 1111.51 478.196 1079.8C631.1 996.204 715.38 808.718 783.28 657.953C795.507 631.007 806.783 605.612 818.153 582.309C828.573 560.558 839.109 537.62 850.089 513.208C918.971 361.587 1004.56 172.96 1167.13 92.5337C1228.7 62.0747 1286.1 48.6444 1341.83 35.9433C1421.29 17.4232 1496.21 0.313995 1580.64 -62.7333L1582.11 -60.3894C1496.52 3.30772 1420.94 20.9874 1340.8 39.3808C1285.24 52.2879 1228.17 65.4329 1167.44 95.5275C1007.04 175.146 921.746 362.79 853.488 513.144C842.181 537.841 831.824 560.985 821.225 582.53C810.182 605.548 798.579 631.228 786.352 658.174C729.908 783.751 661.712 935.498 551.384 1031.61Z" fill="white" fill-opacity="0.1"/>
<path d="M575.237 1058.99C552.648 1078.67 528.413 1095.8 502.354 1110.17C444.068 1141.75 389.233 1155.49 336.066 1168.49C266.419 1185.71 200.647 1202.08 126.843 1255.51L125.377 1253.17C199.835 1199.17 269.482 1181.95 336.775 1165.33C389.763 1152.13 444.27 1138.68 501.722 1107.46C654.806 1024.08 739.086 836.591 806.658 686.111C818.885 659.164 830.161 633.77 841.204 610.752C851.623 589.001 861.98 565.857 873.287 541.16C942.169 389.539 1027.76 200.912 1189.97 120.074C1251.36 89.409 1309.45 76.1054 1365 63.1984C1444.13 44.9635 1519.2 27.3633 1603.48 -35.1929L1604.94 -32.849C1519.68 30.5628 1444.25 47.7514 1364.29 66.3507C1308.74 79.2578 1251.16 92.482 1190.1 122.862C1029.88 202.686 944.586 390.331 876.507 540.89C865.2 565.587 854.516 589.017 844.424 610.482C833.381 633.5 822.104 658.894 809.877 685.841C753.613 811.624 685.565 962.88 575.237 1058.99Z" fill="white" fill-opacity="0.1"/>
<path d="M599.091 1086.37C576.501 1106.05 551.939 1123.47 525.373 1137.92C467.087 1169.5 412.58 1182.95 359.592 1196.15C289.945 1213.37 223.666 1229.83 150.042 1283.47L148.576 1281.12C223.361 1226.84 293.008 1209.62 360.301 1193C412.961 1180.08 467.289 1166.43 524.92 1135.42C678.184 1052.23 762.643 864.955 830.215 714.475C842.115 687.813 853.57 662.625 864.613 639.607C875.032 617.856 885.717 594.426 896.845 569.523C965.726 417.903 1051.14 229.07 1213.17 148.026C1274.89 117.076 1332.97 103.772 1389.03 90.7856C1468.16 72.5508 1542.9 55.2357 1626.86 -7.03535L1628.32 -4.69138C1543.21 58.2294 1467.96 75.6238 1388.32 93.938C1332.59 106.639 1274.68 120.149 1213.8 150.734C1053.76 230.764 968.471 418.409 900.064 569.253C888.936 594.156 878.252 617.586 867.833 639.337C856.79 662.355 845.334 687.543 833.435 714.205C777.139 839.29 709.091 990.547 599.091 1086.37Z" fill="white" fill-opacity="0.1"/>
<path d="M622.944 1113.75C600.027 1133.72 575.465 1151.13 548.899 1165.58C490.941 1196.88 436.433 1210.33 383.445 1223.54C313.471 1241.04 247.519 1257.21 173.24 1311.42L171.774 1309.07C246.887 1254.5 316.534 1237.28 384.154 1220.38C436.635 1207.25 490.815 1194.09 548.267 1162.88C701.709 1079.9 785.841 892.907 853.741 742.142C865.82 715.686 876.948 690.783 887.991 667.765C898.41 646.014 909.242 622.093 920.55 597.396C989.252 445.569 1075.17 256.658 1237.02 175.407C1298.74 144.457 1357.15 130.868 1413.21 117.882C1492.34 99.6472 1566.58 82.4115 1650.56 20.8373L1652.03 23.1813C1567.24 85.817 1488.62 103.972 1412.36 121.526C1356.3 134.512 1298.72 147.736 1237.33 178.401C1077.47 258.637 992.355 446.487 923.949 597.332C912.493 622.52 901.809 645.95 891.569 667.907C880.526 690.925 869.398 715.828 857.319 742.283C800.844 867.163 732.945 1017.93 622.944 1113.75Z" fill="white" fill-opacity="0.1"/>
<path d="M646.797 1141.14C623.88 1161.1 598.991 1178.8 572.245 1193.05C514.287 1224.34 459.779 1237.79 407.299 1250.92C337.145 1268.21 270.866 1284.67 196.766 1339.08L195.3 1336.74C270.561 1281.68 340.535 1264.17 408.007 1247.76C460.161 1234.92 514.489 1221.27 571.793 1190.54C725.415 1107.77 809.547 920.779 877.298 770.505C889.05 744.335 900.505 719.147 911.4 696.62C922.147 674.584 932.651 650.948 944.107 625.76C1012.81 473.933 1098.55 284.815 1260.22 203.359C1322.27 172.124 1380.68 158.535 1436.92 145.755C1515.54 127.599 1590.28 110.284 1673.94 48.9954L1675.41 51.3393C1590.77 113.484 1512.15 131.639 1436.39 149.113C1380.33 162.099 1322.24 175.403 1260.71 206.559C1101.03 287.001 1015.91 474.851 947.685 625.901C936.23 651.09 925.398 675.011 914.978 696.761C904.263 719.494 892.956 744.191 880.876 770.647C824.549 895.036 756.471 1045.59 646.797 1141.14Z" fill="white" fill-opacity="0.1"/>
<path d="M670.651 1168.52C647.734 1188.48 622.844 1206.18 595.771 1220.71C538.14 1251.72 483.633 1265.17 431.152 1278.3C360.998 1295.6 294.719 1312.05 219.965 1367.04L218.498 1364.69C294.235 1308.85 364.209 1291.35 431.681 1274.94C483.835 1262.1 537.836 1248.73 594.96 1217.8C748.761 1135.24 833.073 948.446 900.824 798.172C912.576 772.002 923.883 747.304 934.599 724.572C945.166 702.33 955.998 678.409 967.454 653.221C1036.16 501.394 1121.71 312.07 1283.21 230.408C1345.58 198.888 1403.99 185.299 1460.74 172.439C1539.36 154.284 1613.6 137.048 1697.11 76.2502L1698.57 78.5941C1614.08 140.248 1535.97 158.324 1460.21 175.797C1403.64 188.863 1345.56 202.167 1284.02 233.323C1124.52 313.971 1039.59 502.027 971.18 652.871C959.725 678.059 948.892 701.98 938.325 724.222C927.43 746.749 916.302 771.652 904.55 797.823C847.748 922.988 780.324 1072.98 670.651 1168.52Z" fill="white" fill-opacity="0.1"/>
<path d="M694.504 1195.9C671.26 1216.15 646.37 1233.85 618.79 1248.46C560.98 1279.27 506.979 1292.63 454.826 1305.47C384.345 1323.06 318.065 1339.51 243.311 1394.5L241.845 1392.15C317.581 1336.32 387.735 1319.02 455.535 1302.32C507.509 1289.27 561.182 1276.19 618.486 1245.46C772.466 1163.11 856.778 976.319 924.529 826.045C936.281 799.874 947.261 775.462 958.156 752.935C968.723 730.693 979.555 706.773 991.159 681.093C1060.01 528.776 1145.75 339.658 1306.74 258.075C1369.11 226.555 1428.03 212.887 1484.59 199.821C1563.21 181.665 1637.12 164.715 1720.63 103.917L1722.1 106.261C1637.94 167.629 1559.82 185.705 1484.06 203.179C1427.5 216.245 1369.08 229.834 1307.22 261.275C1148.23 341.843 1062.96 530.185 994.41 681.52C982.806 707.199 971.974 731.12 961.407 753.362C950.512 775.889 939.532 800.301 927.78 826.472C871.453 950.86 803.85 1100.64 694.504 1195.9Z" fill="white" fill-opacity="0.1"/>
<path d="M718.357 1223.28C695.113 1243.53 669.896 1261.51 642.316 1276.13C584.833 1306.65 531.012 1320.22 478.858 1333.06C408.377 1350.64 341.919 1366.9 266.689 1422.66L265.223 1420.31C341.287 1364.19 411.768 1346.6 479.388 1329.7C531.035 1316.94 584.856 1303.37 641.684 1273.42C795.844 1191.27 880.156 1004.48 947.759 854.694C959.363 829.014 970.343 804.602 981.237 782.075C991.805 759.833 1002.96 735.627 1014.57 709.948C1083.42 557.631 1168.98 368.307 1329.79 286.518C1392.48 254.713 1451.41 241.044 1508.48 227.9C1586.77 210.029 1660.83 192.588 1743.86 132.566L1745.33 134.91C1661.31 195.787 1583.2 213.863 1507.95 231.258C1451.38 244.323 1392.46 257.992 1330.6 289.433C1171.78 370.207 1086.52 558.548 1018.15 710.09C1006.54 735.769 995.563 760.181 984.995 782.423C974.428 804.665 963.448 829.077 951.517 855.041C894.979 978.527 827.703 1128.02 718.357 1223.28Z" fill="white" fill-opacity="0.1"/>
<path d="M742.211 1250.66C718.639 1271.2 693.242 1288.97 665.663 1303.59C608.18 1334.11 554.686 1347.39 502.532 1360.24C432.051 1377.82 365.265 1394.36 290.036 1450.12L288.569 1447.77C364.961 1391.36 435.442 1373.78 503.062 1356.88C554.708 1344.12 608.203 1330.83 664.851 1300.67C819.191 1218.73 903.502 1031.94 971.105 882.155C982.709 856.475 993.689 832.063 1004.44 810.027C1015.33 787.5 1026.31 763.088 1037.91 737.409C1106.76 585.091 1192.14 395.562 1353.1 313.282C1415.62 281.271 1475.05 267.523 1532.12 254.378C1610.23 236.302 1684.15 219.352 1766.85 159.615L1768.32 161.959C1684.63 222.551 1606.84 240.342 1531.59 257.737C1474.52 270.881 1415.6 284.55 1353.91 316.197C1195.28 397.177 1110.2 585.724 1041.82 737.266C1030.22 762.945 1019.24 787.357 1008.34 809.884C997.774 832.126 986.615 856.332 975.011 882.011C918.684 1006.4 851.229 1155.69 742.211 1250.66Z" fill="white" fill-opacity="0.1"/>
<path d="M766.064 1278.04C742.492 1298.58 716.768 1316.64 688.861 1331.54C631.706 1361.77 578.212 1375.06 526.238 1388.11C455.577 1405.49 388.97 1422.23 313.086 1478.56L311.62 1476.22C388.159 1419.32 458.64 1401.73 526.767 1384.75C578.414 1371.99 631.401 1358.78 688.229 1328.83C842.748 1247.09 926.911 1060.79 994.842 910.724C1006.45 885.045 1017.28 861.124 1027.85 838.882C1038.74 816.355 1049.72 791.943 1061.47 765.773C1130.32 613.455 1216.03 423.64 1376.48 341.44C1439.33 309.143 1498.75 295.396 1556.01 282.457C1634.12 264.38 1707.85 247.224 1790.41 187.979L1791.87 190.323C1708.33 250.424 1630.73 268.421 1555.48 285.815C1498.4 298.96 1439.48 312.628 1376.96 344.64C1218.51 425.826 1133.43 614.373 1065.05 765.914C1053.3 792.085 1042.32 816.497 1031.42 839.024C1020.86 861.266 1010.02 885.187 998.42 910.866C942.389 1034.27 875.082 1183.07 766.064 1278.04Z" fill="white" fill-opacity="0.1"/>
<path d="M789.917 1305.43C766.018 1326.24 740.294 1344.31 712.387 1359.2C655.232 1389.44 601.737 1402.73 550.091 1415.49C479.103 1433.15 412.317 1449.69 336.612 1506.23L335.146 1503.88C412.012 1446.7 482.494 1429.11 550.62 1412.13C601.76 1399.45 655.255 1386.16 711.576 1356.29C866.274 1274.76 950.437 1088.46 1018.04 938.676C1029.5 913.488 1040.15 889.361 1050.9 867.325C1061.79 844.798 1072.92 819.895 1084.67 793.725C1153.34 641.201 1239.05 451.387 1399.32 368.981C1462.17 336.684 1521.92 322.651 1579.5 309.427C1657.61 291.35 1731.02 274.479 1813.25 215.519L1814.71 217.863C1731.5 277.679 1653.89 295.676 1578.97 312.785C1521.57 326.215 1462.47 339.677 1399.95 371.689C1241.67 453.081 1156.77 641.834 1088.07 793.66C1076.32 819.831 1065.01 844.528 1054.29 867.261C1043.55 889.297 1032.72 913.218 1021.44 938.612C965.915 1061.94 898.608 1210.74 789.917 1305.43Z" fill="white" fill-opacity="0.1"/>
<path d="M813.77 1332.81C789.871 1353.63 763.82 1371.98 735.734 1386.67C678.726 1416.41 625.411 1429.9 573.944 1442.87C502.956 1460.54 436.17 1477.07 359.81 1534.18L358.344 1531.83C435.359 1474.16 506.347 1456.5 574.474 1439.51C625.614 1426.83 678.601 1413.62 735.102 1383.96C889.979 1302.63 974.142 1116.33 1041.93 966.755C1053.38 941.566 1064.21 917.645 1074.63 895.895C1085.35 873.162 1096.66 848.465 1108.73 822.009C1177.41 669.486 1263.11 479.671 1423.03 396.853C1486.2 364.271 1546.13 350.444 1603.71 337.22C1681.5 319.429 1754.72 302.352 1837.13 243.597L1838.27 246.227C1755.21 305.551 1677.93 323.263 1602.85 340.863C1545.28 354.088 1485.85 367.835 1423.51 400.052C1265.41 481.65 1180.51 670.404 1111.99 822.436C1100.23 848.606 1089.11 873.509 1077.88 896.322C1067.46 918.072 1056.63 941.993 1045.18 967.181C989.293 1090.1 922.461 1238.12 813.77 1332.81Z" fill="white" fill-opacity="0.1"/>
<path d="M837.623 1360.19C813.724 1381.01 787.673 1399.36 759.259 1414.33C702.252 1444.08 649.265 1457.28 598.125 1469.97C527.137 1487.63 459.844 1504.25 383.664 1561.56L382.198 1559.22C459.54 1501.25 527.16 1484.35 598.654 1466.61C649.794 1453.93 702.275 1440.8 758.776 1411.13C913.832 1330.01 998.175 1143.92 1065.96 994.342C1077.41 969.154 1088.1 945.724 1098.34 923.767C1109.38 900.749 1120.51 875.846 1132.59 849.391C1201.59 696.582 1287.11 506.561 1447.03 423.744C1510.53 390.876 1570.46 377.05 1628.37 363.54C1705.97 345.543 1779.38 328.672 1861.13 270.488L1862.27 273.117C1779.54 332.157 1702.26 349.868 1627.51 367.183C1569.93 380.408 1510 394.234 1447.33 426.737C1289.41 508.541 1204.51 697.294 1135.99 849.326C1123.91 875.782 1112.78 900.685 1101.74 923.703C1091.32 945.454 1080.81 969.09 1069.18 994.072C1013 1117.97 945.987 1265.79 837.623 1360.19Z" fill="white" fill-opacity="0.1"/>
<path d="M861.149 1387.86C836.923 1408.96 810.872 1427.31 781.951 1442.36C724.944 1472.11 672.284 1485.03 621.144 1497.72C550.156 1515.38 482.536 1532.28 406.028 1589.88L404.562 1587.53C482.052 1529.08 549.851 1512.38 621.673 1494.36C672.307 1481.75 724.967 1468.83 781.14 1439.45C936.376 1358.53 1020.72 1172.44 1088.17 1023.15C1099.3 998.247 1109.99 974.817 1120.41 953.066C1131.45 930.048 1142.9 904.86 1154.8 878.198C1223.8 725.39 1309.15 535.163 1468.88 452.139C1532.21 419.066 1592.65 405.16 1650.73 391.857C1728.34 373.86 1801.24 357.068 1882.84 299.375L1883.98 302.004C1801.39 360.552 1724.29 378.47 1649.87 395.5C1591.97 409.009 1532.03 422.836 1469.37 455.339C1311.63 537.348 1226.58 726.593 1158.38 878.34C1146.48 905.001 1135.03 930.19 1123.98 953.208C1113.56 974.958 1102.88 998.388 1091.75 1023.29C1036.52 1145.64 969.84 1293.17 861.149 1387.86Z" fill="white" fill-opacity="0.1"/>
<path d="M885.003 1415.24C860.776 1436.34 834.398 1454.98 805.477 1470.03C748.797 1499.49 696.137 1512.41 645.177 1525.3C573.682 1543.04 506.569 1559.87 429.733 1617.75L428.267 1615.4C506.085 1556.67 574.211 1539.69 646.033 1521.66C696.667 1509.05 749.147 1495.93 805.173 1467.04C960.588 1386.33 1044.93 1200.23 1112.57 1051.15C1123.87 1026.45 1134.56 1003.02 1144.65 981.556C1155.69 958.538 1166.97 933.144 1179.05 906.688C1247.87 753.674 1333.72 563.368 1492.77 480.218C1556.42 446.859 1616.86 432.953 1675.27 419.365C1752.55 401.653 1825.78 384.576 1907.06 327.168L1908.19 329.797C1825.93 388.06 1749.16 405.693 1674.41 423.008C1616.33 436.311 1556.39 450.138 1493.07 483.211C1336.02 565.347 1250.46 754.671 1182.45 906.624C1170.55 933.286 1159.09 958.474 1147.9 981.983C1137.81 1003.45 1127.12 1026.88 1115.82 1051.58C1060.23 1173.51 993.366 1320.84 885.003 1415.24Z" fill="white" fill-opacity="0.1"/>
<path d="M908.856 1442.62C884.302 1464.01 857.744 1482.44 828.824 1497.49C772.144 1526.95 719.663 1540.08 668.85 1552.48C597.356 1570.22 529.736 1587.12 452.752 1645.49L451.286 1643.15C529.252 1583.92 597.379 1566.94 669.38 1549.12C720.013 1536.52 772.167 1523.67 828.012 1494.58C983.607 1414.07 1067.8 1228.47 1135.58 1078.89C1146.89 1054.2 1157.25 1031.05 1167.52 1009.79C1178.56 986.775 1190.17 961.096 1202.07 934.434C1270.89 781.42 1356.56 590.908 1515.43 507.552C1579.08 474.194 1639.85 460.002 1698.44 446.619C1772.17 429.463 1848.44 411.91 1929.57 354.993L1930.71 357.623C1848.59 415.395 1772 433.233 1697.58 450.263C1639.17 463.852 1579.06 477.473 1515.91 510.751C1359.04 593.093 1273.66 782.623 1205.14 934.655C1192.91 961.602 1181.63 986.996 1170.26 1010.3C1159.99 1031.56 1149.64 1054.7 1138.33 1079.4C1083.76 1201.18 1017.22 1348.22 908.856 1442.62Z" fill="white" fill-opacity="0.1"/>
<path d="M932.709 1470C908.155 1491.39 881.27 1510.1 852.349 1525.16C795.997 1554.33 743.516 1567.46 692.883 1580.07C621.388 1597.81 553.768 1614.71 476.458 1673.37L474.992 1671.02C553.284 1611.51 621.411 1594.53 693.74 1576.42C743.866 1563.9 796.02 1551.05 852.045 1522.16C1007.82 1441.87 1092.01 1256.27 1159.65 1107.18C1170.63 1082.77 1181.16 1059.83 1191.26 1038.36C1202.45 1014.85 1213.9 989.666 1225.95 962.513C1294.77 809.498 1380.44 618.987 1539.13 535.425C1603.11 501.781 1663.88 487.59 1722.47 474.207C1796.2 457.051 1872.14 439.783 1953.27 382.866L1954.41 385.495C1872.63 442.982 1795.85 460.615 1721.94 477.565C1663.53 491.154 1603.09 505.06 1539.77 538.133C1383.07 620.681 1297.69 810.21 1229.35 962.449C1217.12 989.395 1205.52 1015.07 1194.33 1038.58C1184.06 1059.84 1173.7 1082.99 1162.54 1107.19C1107.46 1229.05 1040.75 1375.88 932.709 1470Z" fill="white" fill-opacity="0.1"/>
<path d="M956.562 1497.38C932.009 1518.77 904.796 1537.77 875.369 1552.9C818.837 1581.87 766.863 1594.92 716.23 1607.53C644.408 1625.55 576.608 1642.25 499.149 1701.4L497.683 1699.05C576.124 1639.05 644.43 1622.28 716.759 1604.17C766.886 1591.64 818.86 1578.59 874.557 1549.99C1030.51 1469.9 1114.71 1284.3 1182.34 1135.21C1193.5 1111 1203.53 1088.15 1213.8 1066.89C1224.99 1043.38 1236.59 1017.7 1248.64 990.544C1317.28 837.324 1403.28 646.527 1561.79 562.759C1626.1 528.83 1687.05 514.845 1745.97 501.177C1819.37 484.306 1895.46 466.547 1975.93 410.201L1977.07 412.83C1895.43 469.826 1818.84 487.664 1744.93 504.614C1686.34 517.997 1625.57 532.189 1562.1 565.753C1405.58 648.506 1320.21 838.036 1252.04 990.48C1239.99 1017.63 1228.39 1043.31 1216.87 1067.11C1206.6 1088.37 1196.39 1111.02 1185.41 1135.43C1130.84 1257.21 1064.6 1403.27 956.562 1497.38Z" fill="white" fill-opacity="0.1"/>
<path d="M980.416 1524.76C955.535 1546.44 928.649 1565.15 898.895 1580.57C842.69 1609.25 790.537 1622.1 740.41 1634.62C668.588 1652.65 600.789 1669.35 523.003 1728.78L521.537 1726.44C600.305 1666.15 668.759 1648.88 741.267 1630.98C791.394 1618.45 843.04 1605.69 898.738 1577.09C1054.87 1497.2 1139.07 1311.6 1206.88 1162.72C1217.71 1138.8 1228.25 1115.86 1238.19 1094.88C1249.38 1071.38 1261.31 1045.41 1273.36 1018.26C1342 865.038 1427.82 674.035 1586.15 590.061C1650.46 556.133 1711.73 541.862 1770.83 528.4C1844.24 511.529 1920 494.055 2000.15 437.994L2001.28 440.623C1919.97 497.334 1843.71 514.887 1769.8 531.837C1710.88 545.505 1649.93 559.491 1586.46 593.055C1430.12 676.015 1344.92 865.75 1276.58 1017.99C1264.21 1045.43 1252.78 1071.31 1241.59 1094.82C1231.65 1115.79 1221.11 1138.73 1210.28 1162.65C1154.36 1284.87 1088.12 1430.93 980.416 1524.76Z" fill="white" fill-opacity="0.1"/>
<path d="M1004.27 1552.14C979.388 1573.82 952.175 1592.82 922.241 1608.03C866.037 1636.72 814.39 1649.48 764.264 1662C692.262 1679.83 624.315 1697.01 546.201 1756.73L544.735 1754.39C623.831 1693.81 692.285 1676.55 764.793 1658.65C814.592 1646.41 866.06 1633.44 921.757 1604.83C1078.07 1525.15 1162.44 1339.76 1229.93 1191.16C1240.76 1167.24 1250.97 1144.59 1261.09 1123.82C1272.61 1100.02 1284.04 1074.14 1296.41 1046.7C1365.38 893.196 1450.87 702.478 1609.03 618.298C1673.48 583.879 1734.93 569.814 1794.36 556.066C1867.58 538.989 1943.34 521.516 2023.34 465.946L2024.48 468.575C1943.5 525 1867.23 542.553 1793.32 559.504C1734.22 572.966 1672.95 587.237 1609.33 621.292C1453.17 704.458 1367.98 894.193 1299.48 1046.92C1287.11 1074.36 1275.36 1100.53 1264.17 1124.04C1254.22 1145.01 1243.83 1167.46 1233 1191.38C1178.07 1312.75 1111.98 1458.31 1004.27 1552.14Z" fill="white" fill-opacity="0.1"/>
<path d="M1028.12 1579.53C1002.91 1601.49 975.701 1620.48 945.767 1635.7C889.89 1664.1 837.916 1677.15 788.117 1689.39C716.115 1707.21 647.989 1724.19 569.579 1784.89L568.113 1782.55C647.357 1721.48 715.99 1704.42 788.826 1686.23C838.445 1673.79 890.092 1661.02 945.462 1632.7C1101.95 1553.23 1186 1368.12 1253.81 1219.24C1264.65 1195.32 1274.71 1173.16 1284.83 1152.39C1296.35 1128.59 1308.1 1102.42 1320.3 1074.78C1389.26 921.274 1474.91 730.066 1632.55 645.965C1697 611.545 1758.78 597.195 1818.39 583.654C1891.29 566.862 1967.05 549.388 2046.72 494.104L2047.86 496.733C1967.03 552.667 1890.94 570.426 1817.35 587.091C1757.93 600.839 1696.65 615.109 1632.86 648.959C1476.88 732.33 1391.86 922.271 1323.37 1075C1311.17 1102.64 1299.42 1128.81 1287.9 1152.61C1277.78 1173.38 1267.9 1195.75 1256.89 1219.46C1201.77 1340.62 1135.5 1485.98 1028.12 1579.53Z" fill="white" fill-opacity="0.1"/>
</svg>
