<svg viewBox="0 0 1536 1557" fill="none" xmlns="http://www.w3.org/2000/svg">
<path d="M616.083 403.693C691.516 395.473 766.061 374.469 823.726 356.27C953.229 315.428 1072.04 259.972 1187.03 206.542C1336.67 137.099 1491.1 65.2018 1670.65 24.3822L1669.3 21.3084C1488.79 62.5551 1334.36 134.452 1184.22 203.95C1069.73 257.325 950.884 312.464 821.381 353.305C728.546 382.743 592.493 419.145 480.948 397.485C398.314 381.369 367.274 337.733 334.458 291.713L331.44 287.212C295.605 236.69 209.31 182.328 114.589 175.903C57.5639 172.133 4.94384 185.596 -41.2382 216.392C-92.6032 250.651 -104.996 290.003 -117.528 328.082C-134.064 380.445 -149.912 429.835 -269.056 454.411L-268.21 457.54C-146.603 432.373 -130.359 381.974 -112.928 328.547C-100.861 290.841 -88.3986 252.125 -38.463 218.666C6.28973 188.67 57.4111 175.37 112.903 178.985C206.09 185.255 290.284 238.88 326.014 288.447L329.032 292.949C362.417 339.55 393.527 383.823 478.228 400.358C522.646 409.044 569.625 408.755 616.083 403.693Z" fill="white" fill-opacity="0.1"/>
<path d="M620.696 446.022C696.628 437.749 771.638 416.371 829.802 398.118C958.772 357.013 1077.15 302.247 1191.68 249.19C1341.32 179.747 1496.21 107.477 1676.79 66.8667L1675.45 63.7928C1494.4 104.776 1339.51 177.046 1188.87 246.598C1074.84 299.6 956.461 354.366 827.991 395.417C735.157 424.855 599.139 461.575 487.128 440.288C403.496 424.281 372.421 380.326 339.57 333.988L337.155 330.387C301.321 279.866 214.991 225.185 120.77 218.706C63.7444 214.936 11.1244 228.399 -35.0575 259.195C-86.4225 293.454 -99.3151 332.86 -111.313 371.203C-127.848 423.566 -143.732 472.638 -261.842 497.423L-260.496 500.497C-139.423 475.067 -123.179 424.668 -106.213 371.613C-94.1461 333.907 -81.7185 294.874 -31.2833 261.36C13.504 231.682 64.6256 218.382 120.117 221.997C212.805 228.322 297.533 282.211 332.798 332.15L335.212 335.751C368.667 382.99 400.276 427.208 485.477 443.688C528.258 451.264 574.737 451.03 620.696 446.022Z" fill="white" fill-opacity="0.1"/>
<path d="M625.309 488.352C701.74 480.023 777.25 458.591 835.379 440.02C963.849 398.969 1081.23 344.312 1195.29 291.628C1345.4 221.812 1500.79 149.488 1681.87 108.823L1680.52 105.749C1498.98 146.787 1343.09 219.165 1192.98 288.981C1079.46 341.929 962.038 396.268 834.068 437.264C741.233 466.703 604.75 503.796 492.74 482.508C408.608 466.556 377.498 422.283 344.113 375.681L342.302 372.98C305.934 322.195 220.103 267.46 125.847 260.662C68.7871 256.574 16.7013 270.301 -30.0149 300.833C-81.914 334.828 -94.2723 374.498 -106.769 412.896C-123.34 464.941 -139.189 514.331 -256.765 539.38L-255.419 542.454C-134.88 516.759 -118.601 466.679 -101.67 413.306C-89.6029 375.6 -77.21 336.248 -26.2406 302.998C19.0464 273.266 69.6681 260.021 125.195 263.954C217.882 270.278 302.145 324.54 337.91 374.425L339.721 377.126C373.21 424.682 405.388 469.483 491.054 485.59C533.37 493.539 579.35 493.36 625.309 488.352Z" fill="white" fill-opacity="0.1"/>
<path d="M630.42 530.627C706.852 522.299 782.827 500.494 841.455 481.868C968.926 440.926 1086.34 386.588 1199.4 334.012C1350.01 264.142 1505.86 191.445 1687.48 151.044L1686.13 147.97C1504.05 188.744 1347.66 261.177 1197.09 331.365C1084.03 383.941 967.115 438.225 840.11 478.794C747.31 508.551 610.826 545.644 497.852 524.783C413.22 508.886 382.818 466.468 348.156 417.429L346.949 415.628C310.546 364.525 224.68 309.471 130.959 302.937C73.8991 298.849 21.7785 312.258 -24.9378 342.79C-76.8369 376.785 -89.6948 416.51 -102.192 454.907C-118.762 506.952 -134.611 556.342 -251.687 581.337L-250.342 584.411C-130.802 558.825 -114.558 508.426 -97.0923 455.318C-85.0601 417.293 -72.1328 378.205 -21.6629 345.009C23.6239 315.277 74.2804 302.35 129.807 306.283C222.03 312.981 306.792 367.188 342.592 417.391L343.799 419.192C377.822 467.012 410.035 512.131 496.2 528.184C538.482 535.814 584.461 535.635 630.42 530.627Z" fill="white" fill-opacity="0.1"/>
<path d="M635.032 572.956C711.964 564.574 788.438 542.715 847.532 523.716C974.503 482.828 1090.96 428.917 1203.52 376.396C1354.59 306.153 1510.48 233.774 1692.59 193.319L1691.25 190.245C1508.63 230.755 1351.78 303.561 1200.74 374.122C1088.15 426.325 971.727 480.554 845.221 521.069C752.421 550.826 615.473 588.292 502.499 567.431C416.902 551.96 386.931 508.851 351.7 459.231L351.096 458.33C314.693 407.227 228.793 351.855 135.037 345.003C78.4764 340.861 25.8563 354.323 -20.8945 384.537C-73.2933 418.587 -86.1511 458.312 -98.1141 496.973C-114.684 549.018 -130.533 598.408 -246.576 623.612L-245.23 626.686C-126.224 600.837 -109.98 550.437 -93.0145 497.383C-80.9822 459.359 -68.0896 419.952 -17.0855 387.021C28.236 357.607 79.3921 344.625 134.419 348.613C226.642 355.31 310.939 409.89 346.774 460.411L347.377 461.312C381.435 509.45 413.683 554.888 501.347 570.777C543.628 578.408 589.573 577.91 635.032 572.956Z" fill="white" fill-opacity="0.1"/>
<path d="M639.645 615.287C717.076 606.85 794.015 584.618 853.109 565.619C979.081 524.841 1095.03 470.984 1207.63 418.781C1359.2 348.484 1515.55 275.732 1698.17 235.222L1696.82 232.149C1513.21 272.767 1356.35 345.573 1204.82 416.189C1092.72 468.337 977.27 522.14 851.263 562.6C758.498 592.675 621.55 630.141 508.111 609.653C422.015 594.237 391.509 550.864 356.278 501.243C319.84 449.821 233.94 394.45 140.184 387.597C83.6235 383.455 31.4683 396.545 -15.2825 426.759C-67.6813 460.809 -80.5392 500.533 -93.0016 539.249C-109.572 591.294 -125.421 640.684 -240.964 665.834L-239.618 668.907C-121.147 642.794 -104.868 592.713 -87.9021 539.659C-75.8698 501.635 -62.9772 462.228 -11.5082 428.924C33.8133 399.51 84.9694 386.529 140.031 390.835C231.754 397.586 316.586 452.43 352.42 502.951C387.013 551.354 419.295 597.109 507.458 612.944C549.24 620.629 594.685 620.186 639.645 615.287Z" fill="white" fill-opacity="0.1"/>
<path d="M644.292 657.935C722.223 649.443 799.661 627.157 859.22 607.785C984.692 567.061 1100.18 513.577 1211.78 461.483C1363.31 390.868 1520.17 318.062 1703.82 277.761L1702.47 274.688C1518.32 315.042 1361 388.221 1208.97 458.891C1097.34 510.667 982.382 564.415 857.374 604.766C764.109 634.896 627.196 672.68 513.756 652.192C427.161 636.83 394.948 591.711 361.459 544.155C342.352 517.252 311.686 490.965 275.58 470.424C234.632 447.19 189.624 433.094 145.795 429.818C89.2347 425.676 37.0797 438.766 -9.70589 468.661C-62.6389 502.447 -75.4622 542.49 -87.9247 581.206C-104.495 633.251 -120.378 682.322 -234.853 708L-233.507 711.074C-116.035 685.07 -99.7909 634.67 -82.825 581.616C-70.7929 543.592 -57.9349 503.867 -6.4313 470.881C39.4245 441.731 90.0811 428.804 144.608 432.846C236.332 439.598 320.699 494.814 357.067 545.599C391.125 593.738 423.407 639.493 512.57 655.22C554.352 662.905 599.332 662.834 644.292 657.935Z" fill="white" fill-opacity="0.1"/>
<path d="M649.404 700.209C727.834 691.663 805.737 669.004 865.296 649.633C990.269 608.963 1104.76 555.588 1215.89 503.867C1367.92 433.197 1525.24 360.018 1709.39 319.663L1708.05 316.589C1523.4 356.999 1365.58 430.232 1213.08 501.274C1102.45 552.941 987.459 606.371 863.45 646.613C770.186 676.743 633.307 714.845 519.402 694.73C431.808 679.477 400.095 634.304 366.606 586.747C347.499 559.845 316.833 533.558 280.692 512.699C239.743 489.465 194.735 475.368 150.872 471.774C94.8113 467.577 42.1219 480.404 -4.62899 510.618C-57.562 544.404 -70.8848 584.501 -83.3472 623.216C-99.9175 675.261 -115.801 724.333 -229.776 749.956L-228.43 753.03C-111.492 726.762 -95.2135 676.681 -78.2476 623.627C-65.7505 585.23 -53.3575 545.878 -1.35427 512.837C44.5016 483.687 95.1928 471.078 149.72 475.12C241.478 482.19 325.845 537.407 361.714 588.246C395.772 636.385 428.019 681.822 517.682 697.494C559.463 705.179 604.444 705.108 649.404 700.209Z" fill="white" fill-opacity="0.1"/>
<path d="M666.763 738.896C726.71 732.364 794.746 716.577 871.373 691.481C995.347 650.92 1109.87 597.863 1220.04 546.569C1372.54 475.526 1530.36 402.293 1714.54 362.257L1713.19 359.183C1528.01 399.328 1369.73 472.934 1217.23 543.977C1107.06 595.271 993.037 648.274 869.063 688.834C616.224 771.455 457.478 752.683 370.823 630.086C351.682 602.866 321.016 576.579 284.91 556.038C243.927 532.485 198.919 518.389 155.055 514.795C98.9597 510.28 46.8047 523.37 -0.480345 553.32C-53.9129 587.161 -66.7362 627.203 -79.1639 666.237C-95.7342 718.282 -111.618 767.354 -225.059 793.241L-223.713 796.315C-107.309 769.783 -91.5296 719.756 -74.0643 666.648C-61.5672 628.251 -49.2089 588.58 3.29385 555.485C49.1497 526.335 100.34 513.672 154.403 518.087C221.197 523.368 316.284 560.992 366.466 631.849C428.512 718.804 525.889 754.246 666.763 738.896Z" fill="white" fill-opacity="0.1"/>
<path d="M670.875 781.281C731.321 774.694 799.858 758.853 877.449 733.33C1000.92 692.823 1114.48 640.193 1224.15 588.954C1377.15 517.857 1534.93 444.305 1720.12 404.16L1718.77 401.086C1532.55 441.022 1374.3 514.946 1221.34 586.362C1111.67 637.601 998.113 690.231 875.139 730.683C621.335 813.731 462.624 795.277 375.969 672.68C340.135 622.159 257.524 564.497 160.666 557.016C104.571 552.501 52.3808 565.273 5.09565 595.223C-48.3715 628.745 -61.6597 669.161 -74.0874 708.195C-90.6577 760.24 -106.541 809.311 -218.983 835.089L-217.637 838.163C-102.267 811.422 -85.9883 761.341 -68.9878 708.605C-56.4907 670.208 -43.6327 630.483 8.37049 597.443C54.261 568.611 105.452 555.948 159.514 560.362C226.309 565.644 320.931 603.641 371.113 674.498C433.123 761.134 530.5 796.577 670.875 781.281Z" fill="white" fill-opacity="0.1"/>
<path d="M676.487 823.501C736.933 816.914 805.47 801.073 883.526 775.177C1006 734.78 1119.06 682.204 1228.76 631.283C1382.23 559.813 1540.51 486.207 1726.23 446.326L1724.88 443.252C1538.17 483.242 1378.92 557.275 1225.45 628.745C1116.25 679.612 1003.69 732.133 881.181 772.212C626.413 855.687 467.736 837.552 380.617 715.328C344.783 664.806 262.136 606.826 165.744 598.973C110.148 594.403 57.4586 607.23 10.1388 636.861C-43.8279 670.438 -56.6166 710.799 -69.5439 749.887C-86.1142 801.932 -101.998 851.004 -213.905 877.046L-212.559 880.12C-97.6889 853.433 -81.4101 803.352 -64.4443 750.298C-51.9472 711.901 -39.1239 671.858 13.4136 639.081C59.8037 610.195 110.529 597.904 164.592 602.319C231.386 607.6 326.043 645.915 376.26 717.091C423.493 784.083 492.083 819.763 585.27 826.033C613.266 827.813 643.517 827.094 676.487 823.501Z" fill="white" fill-opacity="0.1"/>
<path d="M681.099 865.831C741.545 859.244 810.546 843.03 889.102 817.08C1011.08 776.737 1123.67 724.534 1232.38 673.721C1385.84 602.251 1544.59 528.273 1731.34 488.601L1729.99 485.527C1542.74 525.254 1383.53 599.605 1229.57 671.129C1120.83 721.623 1008.77 774.09 887.257 814.06C632.058 898.226 472.417 880.518 385.763 757.921C349.894 707.082 267.248 649.101 170.855 641.248C115.259 636.679 63.0695 649.45 15.2154 678.818C-39.2509 712.449 -52.0396 752.811 -64.9322 792.217C-81.5372 843.944 -97.4205 893.015 -208.794 919.321L-207.448 922.395C-93.112 895.444 -77.3326 845.418 -59.8326 792.627C-47.3702 753.912 -34.5121 714.187 18.5249 681.356C64.9497 652.788 115.641 640.18 169.703 644.594C264.563 652.292 345.641 709.8 381.406 759.684C428.639 826.676 497.194 862.038 590.881 868.254C618.877 870.034 648.628 869.369 681.099 865.831Z" fill="white" fill-opacity="0.1"/>
<path d="M685.711 908.161C746.657 901.52 816.158 885.252 895.178 858.928C1016.15 818.694 1128.25 766.546 1236.49 716.106C1390.42 644.264 1549.67 570.231 1736.92 530.504L1735.57 527.43C1547.79 566.893 1388.11 641.617 1233.68 713.514C1125.44 763.954 1013.84 816.048 893.333 855.909C773.786 895.343 677.066 912.323 597.645 907.13C505.026 901.441 437.539 866.607 390.91 800.515C355.041 749.676 272.36 691.377 175.933 683.206C120.337 678.636 68.1123 691.09 20.2583 720.458C-34.208 754.089 -47.4962 794.504 -59.8893 833.856C-76.4944 885.583 -92.3777 934.655 -203.217 961.224L-201.871 964.298C-88.5687 937.138 -72.2551 887.375 -55.2893 834.321C-42.8268 795.606 -30.0037 755.563 23.5329 722.677C69.9577 694.109 121.183 681.764 174.746 686.233C269.106 693.986 350.718 751.757 386.018 802.015C432.613 867.788 503.306 904.205 596.458 910.157C624.024 912.628 653.74 911.645 685.711 908.161Z" fill="white" fill-opacity="0.1"/>
<path d="M690.324 950.491C751.77 943.795 821.271 927.527 900.791 901.149C1021.3 861.288 1132.4 809.248 1240.17 759.181C1394.6 687.284 1554.28 612.56 1741.6 573.47L1740.25 570.397C1551.97 609.914 1391.75 684.374 1236.86 756.644C1129.59 806.656 1018.49 858.696 897.981 898.557C778.468 938.31 681.749 955.29 601.862 950.468C508.744 944.835 440.758 910.055 394.163 844.281C357.76 793.178 275.544 734.507 179.651 726.599C124.554 721.975 71.8302 734.483 23.9414 763.533C-31.0591 796.9 -43.8131 837.579 -56.7056 876.986C-73.3106 928.712 -89.1939 977.784 -199.034 1004.24L-197.688 1007.32C-84.8855 980.213 -68.6065 930.132 -51.606 877.396C-39.1436 838.681 -26.3204 798.638 27.2162 765.752C73.641 737.184 124.901 725.158 178.464 729.627C272.858 737.698 353.971 795.523 389.771 845.726C436.366 911.499 507.558 947.862 600.675 953.496C629.636 954.849 658.852 953.92 690.324 950.491Z" fill="white" fill-opacity="0.1"/>
<path d="M695.901 992.393C757.846 985.643 828.311 968.948 907.366 942.943C1027.38 903.136 1138.01 851.469 1244.78 801.511C1399.68 729.241 1559.36 654.517 1747.71 615.637L1746.36 612.563C1557.04 651.87 1396.87 726.649 1241.97 798.919C1135.2 848.877 1024.53 900.225 905.056 940.296C785.543 980.049 688.824 997.029 608.972 992.526C515.389 987.265 447.402 952.485 400.808 886.712C364.404 835.608 282.154 776.619 186.226 768.393C131.13 763.769 78.8704 775.904 30.5169 805.326C-24.4837 838.693 -37.7371 879.427 -50.6298 918.834C-67.2348 970.56 -83.1181 1019.63 -192.459 1046.04L-191.113 1049.11C-78.8443 1021.74 -63.0303 972.035 -46.0298 919.299C-33.602 880.265 -20.2791 840.168 33.2921 807.6C80.2511 779.296 131.012 767.324 184.575 771.793C278.469 779.918 359.617 838.062 395.451 888.583C456.22 973.101 555.026 1007.74 695.901 992.393Z" fill="white" fill-opacity="0.1"/>
<path d="M700.049 1035.1C762.493 1028.29 833.458 1011.54 912.944 984.845C1031.96 945.147 1142.09 893.535 1248.4 843.949C1403.79 771.625 1563.93 696.528 1752.79 657.593L1751.94 654.465C1562.09 693.509 1401.44 768.66 1246.09 841.302C1139.78 890.888 1029.61 942.182 911.098 981.826C791.62 1021.9 694.901 1038.88 614.584 1034.75C522.035 1029.69 451.447 994.232 405.455 929.359C369.018 877.938 286.267 819.002 191.339 810.668C136.242 806.044 83.9832 818.179 35.595 847.283C-19.9051 880.705 -33.1586 921.439 -46.0166 961.163C-62.6215 1012.89 -78.5394 1061.64 -187.311 1088.63L-185.965 1091.71C-74.7305 1064.13 -58.417 1014.36 -41.4166 961.628C-28.9888 922.594 -15.7006 882.179 38.405 849.875C85.3638 821.571 136.124 809.599 189.722 814.386C283.617 822.512 364.764 880.655 400.633 931.495C460.868 1015.75 559.674 1050.39 700.049 1035.1Z" fill="white" fill-opacity="0.1"/>
<path d="M704.161 1077.48C767.105 1070.62 838.57 1053.82 919.019 1026.69C1037.53 987.049 1146.7 935.864 1253.01 886.278C1408.37 813.636 1569.51 738.431 1758.9 699.759L1758.05 696.631C1567.7 735.73 1406.56 810.935 1250.7 883.632C1144.89 933.163 1035.69 984.03 917.674 1023.62C662.149 1109.43 496.513 1092.38 411.101 971.898C374.663 920.476 291.844 860.905 196.915 852.57C141.784 847.628 89.5596 860.081 41.1367 888.867C-14.398 921.97 -27.6169 963.022 -40.4748 1002.75C-57.0798 1054.47 -72.9978 1103.23 -180.77 1130.11L-179.424 1133.18C-68.6894 1105.66 -52.3757 1055.89 -35.3753 1003.16C-22.9475 964.124 -9.6594 923.708 44.4113 891.087C91.405 863.101 142.166 851.129 195.763 855.916C289.158 864.096 370.341 922.558 406.744 973.661C465.515 1058.4 564.286 1092.72 704.161 1077.48Z" fill="white" fill-opacity="0.1"/>
<path d="M708.774 1119.81C772.217 1112.9 844.147 1095.72 925.096 1068.54C1042.61 1029.01 1151.81 978.14 1257.12 928.663C1412.98 855.966 1574.09 780.442 1764.51 741.98L1763.66 738.852C1572.78 777.687 1411.17 853.265 1254.85 926.334C1149.5 975.493 1040.8 1026.31 923.785 1065.79C667.796 1151.97 501.73 1135.61 416.317 1015.13C379.845 963.388 297.025 903.817 202.096 895.482C147.465 890.485 95.2057 902.62 46.7828 931.406C-9.25146 964.564 -22.4702 1005.62 -35.3281 1045.34C-51.9332 1097.07 -67.8513 1145.82 -175.09 1172.96L-173.744 1176.04C-63.5427 1148.25 -47.7286 1098.54 -30.7281 1045.81C-17.8009 1006.72 -5.04702 966.038 49.558 933.68C96.5516 905.694 147.847 893.986 200.91 898.51C293.806 906.744 375.522 965.47 411.426 1016.63C470.661 1100.99 568.899 1135.05 708.774 1119.81Z" fill="white" fill-opacity="0.1"/>
<path d="M712.922 1162.51C776.865 1155.54 849.294 1138.31 931.207 1110.71C1048.22 1071.23 1156.43 1020.47 1261.31 971.684C1417.63 898.614 1579.23 823.036 1769.66 784.574L1768.81 781.446C1577.39 820.017 1415.32 895.968 1258.5 969.092C1153.62 1017.88 1045.41 1068.64 928.897 1108.06C671.978 1194.99 505.413 1178.68 420 1058.2C400.255 1030.08 370.019 1003.11 334.843 981.818C294.221 956.939 249.608 941.833 205.71 937.921C151.079 932.924 98.8196 945.059 50.3619 973.527C-5.67242 1006.68 -19.3908 1047.79 -32.2488 1087.52C-48.8537 1139.24 -64.7717 1188 -171.51 1215.09L-170.165 1218.16C-60.9974 1190.16 -44.6493 1140.72 -27.6488 1087.98C-14.7561 1048.57 -1.46785 1008.16 53.1372 975.801C100.63 947.761 151.425 936.107 204.524 940.949C297.454 949.501 378.671 1008.28 415.074 1059.38C475.274 1143.32 573.047 1177.75 712.922 1162.51Z" fill="white" fill-opacity="0.1"/>
<path d="M718.533 1204.73C782.476 1197.76 854.405 1180.59 936.784 1152.61C1052.8 1113.24 1160.54 1062.85 1264.92 1014.12C1421.74 940.998 1583.81 865.047 1774.77 826.849L1773.92 823.721C1582 862.346 1419.39 938.033 1262.11 1011.53C1158.23 1060.21 1050.49 1110.59 934.473 1149.96C677.09 1237.27 510.059 1221.33 424.681 1101.17C371.551 1026.45 279.253 986.587 210.856 980.514C156.225 975.517 103.931 987.334 55.4733 1015.8C-1.09524 1048.7 -14.2793 1090.07 -27.6021 1130.16C-44.2071 1181.89 -60.1599 1230.33 -165.865 1257.62L-164.519 1260.7C-55.8513 1232.75 -39.5377 1182.99 -22.5025 1130.57C-9.60994 1091.17 3.64349 1050.43 58.7828 1018.34C106.311 990.617 157.106 978.964 209.704 983.86C302.635 992.412 382.18 1049.76 419.825 1102.99C466.42 1168.76 539.041 1204.32 635.517 1208.3C662.375 1208.92 689.559 1207.89 718.533 1204.73Z" fill="white" fill-opacity="0.1"/>
<path d="M723.646 1247.01C787.589 1240.04 860.482 1222.44 943.36 1194.4C1058.88 1155.09 1166.15 1105.07 1269.53 1056.45C1426.82 982.955 1588.89 907.005 1780.88 869.016L1780.03 865.888C1587.08 904.303 1424.51 980.309 1267.26 1054.12C1163.84 1102.43 1056.6 1152.76 941.55 1191.7C683.236 1279.75 516.24 1264.13 430.828 1143.65C392.579 1089.53 311.432 1031.39 217.433 1022.31C163.301 1017.26 111.007 1029.07 62.0501 1057.6C5.48163 1090.49 -8.20217 1131.91 -21.0254 1171.96C-37.6651 1223.37 -53.5831 1272.12 -158.754 1299.68L-157.408 1302.76C-49.2745 1274.55 -33.4258 1225.16 -16.4252 1172.42C-3.53268 1133.02 9.72076 1092.28 65.3249 1059.82C112.853 1032.09 163.683 1020.76 216.281 1025.65C309.212 1034.21 388.791 1091.88 426.436 1145.1C473.031 1210.87 546.117 1246.06 643.093 1249.99C667.987 1251.14 694.671 1250.16 723.646 1247.01Z" fill="white" fill-opacity="0.1"/>
<path d="M726.724 1289.18C791.666 1282.11 866.059 1264.34 948.403 1236.04C1062.92 1196.83 1169.69 1146.88 1272.61 1098.63C1429.86 1024.81 1592.93 948.752 1785.42 910.709L1784.58 907.581C1591.09 945.733 1428.05 1022.11 1270.3 1095.98C1167.38 1144.23 1061.07 1193.82 946.557 1233.02C829.112 1273.2 729.035 1291.83 648.357 1289.03C552.415 1285.31 480.432 1250.97 434.441 1186.09C396.192 1131.97 314.975 1073.19 221.011 1064.43C166.879 1059.38 114.585 1071.19 65.5935 1099.4C8.52534 1132.35 -5.15822 1173.77 -17.9815 1213.81C-34.6212 1265.22 -50.5392 1313.98 -155.21 1341.48L-153.864 1344.56C-46.7303 1316.46 -30.4167 1266.7 -13.3815 1214.28C-0.488854 1174.87 12.7299 1133.82 68.3687 1101.67C115.931 1074.27 166.726 1062.61 219.36 1067.83C311.791 1076.44 391.405 1134.42 429.584 1187.91C476.179 1253.68 549.265 1288.87 647.205 1292.37C672.599 1293.47 698.749 1292.23 726.724 1289.18Z" fill="white" fill-opacity="0.1"/>
<path d="M731.337 1331.51C796.779 1324.38 871.671 1306.56 954.48 1277.89C1068.5 1238.74 1174.31 1189.21 1277.26 1141.27C1435.01 1067.41 1598.54 990.973 1791.57 953.194L1790.72 950.066C1596.7 987.954 1433.2 1064.7 1274.95 1138.63C1172.5 1186.51 1066.69 1236.04 953.168 1275.14C835.723 1315.31 735.68 1334.26 655.003 1331.46C558.596 1328.11 486.613 1293.77 440.622 1228.9C401.839 1174.51 321.122 1115.68 227.157 1106.91C173.026 1101.86 120.697 1113.36 71.7051 1141.56C14.637 1174.51 0.95346 1215.94 -12.3347 1256.35C-28.9744 1307.76 -44.8924 1356.52 -149.064 1383.97L-147.718 1387.04C-41.1181 1358.68 -24.7699 1309.24 -7.73465 1256.82C5.12322 1217.09 18.8415 1175.99 74.5149 1144.16C122.577 1116.7 173.407 1105.36 225.506 1110.31C317.472 1119.29 397.086 1177.28 435.265 1230.77C481.86 1296.54 555.411 1331.36 653.351 1334.86C677.711 1335.75 703.862 1334.51 731.337 1331.51Z" fill="white" fill-opacity="0.1"/>
<path d="M736.483 1374.11C802.424 1366.92 877.282 1348.78 961.09 1320C1074.11 1280.96 1179.95 1231.74 1281.9 1183.92C1440.12 1109.68 1603.66 1033.25 1797.21 995.732L1796.37 992.604C1601.81 1030.23 1437.81 1107.03 1279.09 1181.33C1177.14 1229.15 1071.8 1278.31 959.279 1317.3C841.869 1357.79 741.826 1376.74 660.683 1374.31C563.811 1371.34 491.294 1336.73 445.338 1272.18C406.555 1217.79 325.803 1158.64 232.304 1149.51C178.671 1144.4 126.343 1155.9 76.8166 1183.84C19.2142 1216.52 5.5653 1258.27 -7.72282 1298.68C-24.3625 1350.09 -40.8147 1398.58 -143.418 1426.51L-142.073 1429.58C-36.5064 1401.01 -20.158 1351.56 -2.62319 1299.09C10.2347 1259.37 23.9529 1218.26 80.126 1186.38C128.223 1159.24 179.053 1147.9 231.152 1152.85C323.118 1161.83 402.767 1220.14 440.98 1273.94C487.575 1339.72 561.126 1374.53 660.031 1377.6C683.322 1377.97 709.008 1377.1 736.483 1374.11Z" fill="white" fill-opacity="0.1"/>
<path d="M741.061 1416.12C807.502 1408.88 882.859 1390.68 966.667 1361.91C1079.19 1322.92 1184.03 1273.81 1285.52 1226.36C1444.23 1152.06 1608.23 1075.26 1802.29 1037.69L1801.44 1034.56C1606.39 1072.24 1441.89 1149.1 1282.71 1223.77C1181.22 1271.22 1076.87 1320.27 964.821 1358.89C817.701 1409.7 696.76 1427.06 606.459 1410.17C538.868 1397.57 485.819 1365.35 449.985 1314.83C411.167 1260.12 329.916 1201.03 236.916 1191.84C183.249 1186.41 130.921 1197.91 81.3944 1225.85C23.792 1258.54 9.64351 1300.33 -3.6446 1340.75C-20.7839 1392.21 -36.7365 1440.65 -138.841 1468.52L-137.495 1471.59C-32.428 1443.08 -16.0798 1393.63 0.955402 1341.21C14.3129 1301.43 27.497 1260.06 84.1696 1228.13C132.266 1200.99 183.096 1189.65 235.23 1194.92C326.696 1203.95 406.38 1262.58 444.594 1316.38C481.032 1367.8 534.649 1400.61 603.774 1413.36C644.522 1420.84 690.106 1421.67 741.061 1416.12Z" fill="white" fill-opacity="0.1"/>
<path d="M745.708 1458.76C812.149 1451.53 888.005 1433.28 972.743 1403.75C1084.3 1365.19 1188.64 1316.14 1289.63 1268.75C1448.81 1194.08 1613.31 1117.22 1807.9 1079.91L1807.06 1076.78C1611.47 1114.2 1446.5 1191.43 1287.32 1266.1C1186.83 1313.44 1082.45 1362.17 970.898 1400.73C823.313 1451.92 701.872 1469.34 611.072 1452.5C543.48 1439.9 490.966 1407.94 454.632 1357.48C434.318 1328.77 404.013 1301.16 370.335 1279.71C330.143 1254.14 285.461 1238.4 242.028 1234.11C188.361 1228.69 136.033 1240.19 86.4717 1267.81C28.3352 1300.23 14.721 1342.29 1.43273 1382.71C-15.7064 1434.17 -31.6593 1482.6 -133.264 1510.42L-131.918 1513.5C-27.3854 1484.71 -10.2807 1432.93 6.03274 1383.17C19.3555 1343.07 32.5743 1302.02 89.247 1270.08C137.344 1242.94 188.208 1231.92 240.342 1237.19C331.309 1246.28 410.992 1304.91 449.775 1359.29C486.178 1410.4 539.761 1442.88 608.921 1455.96C649.135 1463.17 694.754 1464.32 745.708 1458.76Z" fill="white" fill-opacity="0.1"/>
</svg>
