<svg width="1555" height="1816" viewBox="0 0 1555 1816" fill="none" xmlns="http://www.w3.org/2000/svg">
<path d="M1099.04 749.921C1070.99 708.399 1053.77 659.174 1042.03 619.855C1015.64 531.573 1006.08 439.141 996.616 349.837C984.237 233.678 971.65 113.656 922.205 1.307L925.327 0C974.868 113.084 987.454 233.107 1000.02 349.541C1009.29 438.57 1019.14 530.816 1045.52 619.098C1064.31 682.486 1097.32 771.098 1166.3 810.995C1217.46 840.508 1267.27 827.695 1319.83 814.222L1324.88 812.812C1382.49 797.928 1466.47 804.882 1515.3 846.372C1544.63 871.413 1557.9 905.293 1554.1 947.097C1549.86 993.597 1523.54 1024.58 1498.32 1054.83C1463.32 1096.08 1430.42 1135.11 1465.28 1208.07L1462.34 1209.65C1426.84 1135.13 1460.37 1095.27 1495.83 1052.91C1520.96 1023.13 1546.73 992.511 1550.97 947.207C1554.78 906.6 1542.06 873.545 1513.57 849.143C1465.57 808.292 1383.16 801.881 1326.37 816.208L1321.32 817.618C1268.02 831.188 1217.67 844.372 1165.22 814.131C1137.7 798.282 1116.3 775.494 1099.04 749.921Z" fill="white" fill-opacity="0.1"/>
<path d="M1062.46 774.618C1034.24 732.821 1017.1 683.136 1005.18 643.542C979.251 555.349 969.317 463.563 959.769 374.72C947.389 258.562 934.892 138.078 884.801 25.3653L887.922 24.0583C937.924 137.232 950.421 257.715 963.172 374.424C972.535 462.992 982.468 554.778 1008.21 642.696C1026.99 706.084 1059.73 794.881 1128.62 835.239C1180.16 865.302 1230.23 852.304 1283.07 838.645L1287.11 837.516C1344.73 822.632 1428.97 829.401 1477.62 870.616C1506.95 895.657 1520.22 929.537 1516.42 971.341C1512.18 1017.84 1486.05 1049.1 1460.37 1079.26C1425.37 1120.51 1392.75 1159.36 1426.95 1231.95L1423.83 1233.25C1388.79 1158.83 1422.32 1118.96 1457.69 1077.06C1482.82 1047.28 1508.86 1016.48 1512.92 970.901C1516.45 930.48 1503.74 897.425 1475.25 873.023C1427.43 832.447 1344.56 825.946 1287.68 840.734L1283.64 841.862C1229.79 855.803 1179.26 868.712 1126.62 838.196C1100.76 822.429 1079.55 799.917 1062.46 774.618Z" fill="white" fill-opacity="0.1"/>
<path d="M1025.89 799.316C997.479 757.244 980.156 707.283 968.507 667.504C942.768 579.586 933.205 488.35 923.568 399.968C911.278 283.349 898.594 162.59 848.318 49.6022L851.439 48.2952C901.626 161.744 914.495 282.777 926.786 399.397C935.962 487.69 945.799 578.74 971.353 666.383C990.137 729.771 1022.79 819.029 1091.68 859.387C1143.4 889.725 1193.75 876.54 1247.05 862.971L1250.08 862.125C1308.15 847.33 1392.21 853.823 1441.14 894.853C1470.74 919.709 1483.55 953.499 1480.21 995.392C1476.44 1041.98 1449.84 1073.15 1424.35 1103.58C1389.62 1144.65 1356.72 1183.68 1390.47 1256.18L1387.35 1257.49C1352.76 1183.15 1386.02 1143.48 1421.67 1101.39C1446.8 1071.61 1473.12 1040.62 1476.71 994.953C1480.06 954.256 1467.53 921.476 1438.76 897.26C1390.94 856.684 1307.99 850.644 1250.92 865.156L1247.89 866.003C1193.77 880.13 1142.5 893.135 1089.95 862.158C1064 846.852 1042.97 824.614 1025.89 799.316Z" fill="white" fill-opacity="0.1"/>
<path d="M989.132 823.738C960.721 781.666 943.487 731.245 931.653 691.191C906.285 603.823 896.447 512.773 887.181 424.94C874.705 308.046 862.111 186.827 811.374 73.7498L814.495 72.4428C865.143 185.981 878.198 307.289 890.399 424.369C899.665 512.202 909.316 602.977 934.774 689.884C953.282 753.458 985.932 842.715 1054.92 883.81C1106.83 914.422 1155.34 902.077 1211.21 887.572L1213.23 887.008C1271.58 872.028 1355.92 878.335 1404.38 919.275C1433.98 944.131 1447.06 977.736 1443.73 1019.63C1439.95 1066.22 1413.54 1097.66 1388.05 1128.09C1353.32 1169.16 1320.43 1208.19 1353.99 1280.42L1350.86 1281.73C1316.65 1207.94 1350.19 1168.08 1385.37 1125.9C1410.77 1095.93 1436.63 1064.86 1440.41 1019.46C1443.76 978.768 1430.96 946.174 1402.19 921.957C1354.28 881.842 1271.14 875.527 1213.8 890.225L1211.78 890.789C1157.2 904.827 1105.65 918.018 1052.92 886.766C1027.24 871.274 1006.22 849.037 989.132 823.738Z" fill="white" fill-opacity="0.1"/>
<path d="M952.56 848.436C923.963 806.089 906.543 755.393 894.798 714.878C869.616 627.785 859.875 537.47 850.795 449.913C838.408 332.558 825.539 211.525 774.616 98.1723L777.737 96.8653C828.846 210.493 841.811 332.262 853.923 449.802C863.278 537.174 872.744 627.674 898.016 714.307C916.524 777.88 949.085 867.599 1018.08 908.693C1070.07 940.041 1118.96 927.05 1175.56 912.448L1176.57 912.166C1234.92 897.186 1319.53 903.308 1368.27 944.062C1397.68 968.643 1410.95 1002.52 1407.89 1044.23C1404.3 1091.09 1377.89 1122.54 1351.94 1152.88C1317.21 1193.95 1284.31 1232.98 1317.23 1304.84L1314.11 1306.15C1280.35 1232.45 1313.89 1192.59 1349.26 1150.69C1374.66 1120.72 1400.8 1089.46 1404.11 1043.98C1407.19 1003.47 1394.2 970.596 1365.62 946.655C1317.71 906.54 1234.48 900.685 1176.87 915.569L1175.86 915.851C1121 930.074 1069.17 943.451 1015.88 911.375C990.206 895.883 969.458 873.459 952.56 848.436Z" fill="white" fill-opacity="0.1"/>
<path d="M915.987 873.134C887.205 830.512 869.874 779.355 858.129 738.84C833.318 652.297 823.763 562.257 814.408 474.885C801.835 357.255 789.056 235.761 737.947 122.134L741.068 120.827C792.548 235.004 805.514 356.773 817.811 474.589C826.981 561.686 836.35 651.45 861.436 737.808C879.67 801.567 912.23 891.286 981.131 932.84C1033.32 964.463 1082.66 951.562 1139.26 936.96C1197.89 921.794 1282.5 927.916 1331.24 968.671C1360.65 993.251 1374.01 1026.67 1370.94 1068.38C1367.36 1115.24 1340.95 1146.69 1315.18 1177.3C1280.45 1218.37 1247.56 1257.4 1280.28 1328.99L1277.16 1330.3C1243.87 1256.69 1277.13 1217.01 1312.5 1175.11C1337.9 1145.14 1364.04 1113.88 1367.45 1067.94C1370.52 1027.43 1357.53 994.558 1328.67 970.803C1280.95 930.962 1197.26 925.019 1139.65 939.903C1084.33 954.036 1032.23 967.599 978.753 935.247C953.262 920.03 932.7 897.882 915.987 873.134Z" fill="white" fill-opacity="0.1"/>
<path d="M879.14 898.017C850.171 855.12 832.656 803.688 821 762.713C796.374 676.444 786.73 586.866 777.746 500.044C765.449 382.228 752.483 260.459 700.728 146.467L703.85 145.16C755.79 259.427 768.666 381.657 781.149 499.747C790.408 586.383 799.592 675.873 824.307 761.681C842.726 825.715 875.012 915.619 943.913 957.174C996.283 989.072 1047.83 975.881 1101.95 961.754C1132.64 953.841 1168.16 951.88 1201.5 956.191C1239.26 961.12 1271.45 973.812 1294.29 992.818C1323.71 1017.4 1337.07 1050.82 1334.28 1092.34C1331.15 1139.29 1304.47 1170.93 1278.7 1201.54C1243.97 1242.61 1211.35 1281.45 1243.15 1352.86L1240.03 1354.17C1207.11 1281.11 1240.65 1241.25 1276.01 1199.35C1301.42 1169.38 1327.83 1137.93 1330.96 1092.17C1333.57 1051.57 1320.77 1018.98 1292.38 995.314C1244.65 955.474 1160.87 949.991 1102.8 964.786C1047.94 979.009 995.844 992.571 941.995 959.67C916.504 944.453 895.853 922.765 879.14 898.017Z" fill="white" fill-opacity="0.1"/>
<path d="M842.382 922.439C813.228 879.267 795.801 827.375 784.146 786.399C759.706 700.406 750.433 611.377 741.359 525.016C728.876 406.926 716 284.696 664.06 170.429L667.181 169.122C719.307 283.664 732.369 406.169 744.763 524.72C753.65 610.806 763.109 700.11 787.452 785.367C805.871 849.402 837.882 939.491 906.694 981.507C959.436 1013.95 1010.8 1000.49 1064.92 986.362C1095.61 978.449 1131.12 976.489 1164.74 980.614C1202.5 985.543 1234.69 998.235 1257.81 1017.05C1287.04 1041.36 1300.86 1074.87 1297.79 1116.58C1294.67 1163.53 1268.17 1195.44 1242.4 1226.05C1207.67 1267.12 1175.05 1305.97 1206.67 1377.1L1203.55 1378.41C1171.09 1305.44 1204.35 1265.76 1239.72 1223.86C1265.21 1193.43 1291.53 1162.44 1294.48 1116.41C1297.09 1075.81 1284.01 1043.4 1255.62 1019.74C1207.62 980.082 1123.84 974.6 1065.95 989.669C1011.1 1003.89 959.271 1017.27 905.237 984.092C879.746 968.875 859.095 947.188 842.382 922.439Z" fill="white" fill-opacity="0.1"/>
<path d="M802.906 938.688C780.623 905.69 762.146 862.914 747.291 810.086C723.223 724.643 713.674 635.8 704.698 550.174C692.304 431.623 679.242 309.118 627.026 195.038L630.148 193.731C682.735 308.361 695.707 431.327 708.101 549.878C717.078 635.503 726.44 724.072 750.508 809.515C799.677 983.709 888.041 1048.15 1027.71 1011.89C1058.67 1003.79 1094.19 1001.83 1127.53 1006.14C1165.56 1010.89 1197.76 1023.58 1220.88 1042.4C1250.38 1066.52 1263.74 1099.94 1261.13 1141.73C1258.19 1188.96 1231.51 1220.6 1205.46 1251.4C1170.74 1292.46 1138.11 1331.31 1169.27 1402.36L1166.15 1403.66C1134.15 1330.78 1167.6 1291.38 1202.78 1249.2C1228.28 1218.77 1254.87 1187.6 1257.63 1141.3C1260.24 1100.69 1246.98 1068.01 1218.5 1044.81C1183.45 1016.03 1109.05 994.198 1028.28 1015.11C928.948 1040.55 855.272 1016.23 802.906 938.688Z" fill="white" fill-opacity="0.1"/>
<path d="M766.52 963.66C744.05 930.387 725.388 887.337 710.436 833.773C686.554 748.605 677.102 660.497 668.311 575.147C655.732 456.321 642.945 333.63 590.358 219L593.479 217.693C646.712 332.688 659.41 455.839 671.714 574.851C680.505 660.201 689.957 748.308 713.654 833.202C762.919 1008.13 851.008 1072.76 990.676 1036.5C1048.29 1021.62 1133.25 1024.7 1183.93 1066.55C1213.43 1090.67 1227.07 1123.9 1224.46 1165.7C1221.8 1212.74 1195.02 1244.83 1168.98 1275.63C1134.25 1316.7 1101.63 1355.55 1132.42 1426.04L1129.3 1427.35C1097.95 1354.83 1131.21 1315.15 1166.3 1273.44C1191.79 1243.01 1218.2 1211.56 1221.15 1165.53C1223.48 1125.12 1210.22 1092.43 1181.74 1069.23C1146.69 1040.45 1072.2 1019.08 991.433 1039.99C892.376 1065.25 818.7 1040.93 766.52 963.66Z" fill="white" fill-opacity="0.1"/>
<path d="M729.576 987.808C707.107 954.535 688.444 911.485 673.582 857.46C650.071 772.842 640.805 685.009 631.739 599.845C619.248 480.558 606.276 357.592 553.228 242.872L556.349 241.565C609.769 356.835 622.837 480.536 635.328 599.823C644.208 684.713 653.288 772.27 677.075 856.703C726.436 1032.37 814.25 1097.19 953.828 1061.38C1011.44 1046.5 1096.68 1049.4 1147.45 1090.78C1176.76 1114.63 1190.58 1148.14 1188.25 1189.75C1185.78 1237.07 1158.82 1268.88 1132.96 1299.96C1098.23 1341.03 1065.61 1379.87 1095.94 1450.28L1092.82 1451.59C1061.65 1379.35 1094.91 1339.67 1130.28 1297.77C1155.77 1267.34 1182.45 1235.7 1184.94 1189.58C1187.09 1148.89 1173.74 1116.67 1145.26 1093.47C1110.21 1064.69 1035.44 1043.5 954.4 1064.6C878.134 1084.47 817.518 1074.16 769.511 1033.31C755.173 1020.97 741.832 1005.96 729.576 987.808Z" fill="white" fill-opacity="0.1"/>
<path d="M693.003 1012.51C670.534 979.233 651.961 935.722 636.913 881.422C613.588 797.079 604.232 709.707 595.538 625.092C583.047 505.805 570.164 382.379 516.47 267.295L519.591 265.988C573.471 381.347 586.265 505.234 598.941 624.796C607.911 709.225 616.805 796.507 640.22 880.39C689.218 1056.7 777.128 1122.25 916.795 1085.99C974.684 1070.92 1059.92 1073.82 1110.69 1115.21C1140.01 1139.05 1153.64 1172.28 1151.77 1213.98C1149.48 1261.58 1122.52 1293.4 1096.39 1324.66C1061.93 1365.54 1029.31 1404.39 1059.18 1474.7L1056.06 1476.01C1025.35 1403.86 1058.8 1364.45 1093.7 1322.46C1119.47 1291.85 1145.88 1260.4 1148.18 1214.01C1150.06 1173.5 1136.98 1141.09 1108.5 1117.89C1058.56 1077.14 974.43 1074.7 917.367 1089.21C841.101 1109.08 780.76 1098.58 732.568 1057.46C718.23 1045.12 705.074 1030.38 693.003 1012.51Z" fill="white" fill-opacity="0.1"/>
<path d="M656.431 1037.2C633.776 1003.66 615.017 959.869 600.059 905.109C577.104 821.315 567.935 734.219 559.151 650.065C546.75 530.317 533.681 406.616 479.801 291.257L482.922 289.95C537.263 405.398 549.967 529.746 562.554 649.768C571.338 733.922 580.322 820.744 603.366 904.077C626.313 986.674 657.024 1044.01 697.816 1078.92C745.087 1119.87 804.507 1130.19 879.762 1110.6C937.651 1095.53 1023.16 1098.24 1074.21 1139.44C1103.52 1163.29 1117.43 1196.34 1115.56 1238.04C1113.27 1285.63 1086.5 1317.72 1060.18 1348.71C1025.73 1389.59 993.102 1428.44 1022.51 1498.66L1019.39 1499.97C989.328 1428.18 1022.32 1388.69 1057.68 1346.79C1083.45 1316.18 1110.13 1284.54 1112.25 1237.87C1114.12 1197.37 1100.59 1164.87 1072.29 1141.94C1022.54 1101.47 937.947 1098.93 880.794 1113.91C805.814 1133.31 743.63 1122.45 695.899 1081.42C681.196 1069.73 668.316 1054.8 656.431 1037.2Z" fill="white" fill-opacity="0.1"/>
<path d="M619.859 1061.9C597.018 1028.08 578.259 984.292 563.115 929.257C540.071 845.924 531.273 759.377 522.4 675.683C509.813 555.661 497.109 431.313 442.679 316.326L445.8 315.019C500.326 430.742 513.492 555.179 525.989 675.662C534.676 759.081 543.475 845.627 566.518 928.96C589.19 1011.74 619.901 1069.08 660.605 1104.45C708.061 1145.67 767.667 1156.27 842.647 1136.86C900.996 1121.88 986.596 1124.14 1037.18 1165.25C1066.31 1188.82 1080.41 1222.14 1078.81 1263.65C1076.98 1311.34 1049.75 1343.34 1023.61 1374.6C989.16 1415.48 956.537 1454.33 985.573 1524.01L982.452 1525.31C952.577 1453.8 985.839 1414.12 1020.93 1372.41C1046.7 1341.79 1073.38 1310.16 1075.5 1263.49C1077.37 1222.99 1063.56 1190.67 1035.26 1167.74C985.236 1127.46 900.832 1125.2 843.493 1139.9C768.513 1159.3 706.143 1148.17 658.687 1106.95C644.253 1093.87 631.557 1079.22 619.859 1061.9Z" fill="white" fill-opacity="0.1"/>
<path d="M583.19 1085.86C560.164 1051.76 541.309 1007.24 526.075 952.669C503.217 869.611 494.329 783.525 485.828 700.381C473.33 579.898 460.626 455.55 405.549 340.198L408.671 338.891C463.843 454.979 476.733 579.601 489.231 700.085C497.733 783.228 506.895 869.129 529.292 952.097C551.964 1034.88 582.676 1092.22 623.104 1127.77C670.471 1169.46 730.077 1180.05 805.057 1160.65C863.406 1145.67 949.281 1147.73 1000.14 1188.66C1029.27 1212.23 1043.45 1245.09 1041.77 1287.07C1039.94 1334.75 1012.89 1367.03 986.757 1398.29C952.306 1439.17 919.683 1478.02 948.533 1547.42L945.412 1548.73C915.997 1477.3 949.17 1438.09 984.261 1396.37C1010.31 1365.57 1036.8 1333.66 1038.64 1287.18C1040.06 1246.58 1026.43 1214.55 998.134 1191.62C948.292 1151.6 863.613 1149.53 806 1164.42C709.239 1188.92 635.556 1163.41 583.19 1085.86Z" fill="white" fill-opacity="0.1"/>
<path d="M546.528 1111.02C523.316 1076.65 504.275 1031.85 489.406 976.63C466.919 894.122 458.218 808.311 449.627 725.629C436.943 604.87 424.328 480.062 369.066 364.435L372.002 362.853C427.635 479.03 440.436 604.113 452.844 725.057C461.435 807.74 470.412 893.365 492.713 975.598C515.11 1058.57 545.821 1115.9 586.16 1151.92C632.881 1193.24 694.24 1204.65 768.209 1185.53C826.833 1170.37 912.894 1172.71 963.383 1213.08C992.512 1236.65 1006.7 1269.51 1005.29 1311.3C1003.64 1359.26 976.594 1391.54 950.185 1422.99C915.733 1463.87 883.385 1502.53 911.5 1572.03L908.379 1573.33C879.611 1502.28 912.598 1462.78 947.688 1421.07C973.733 1390.27 1000.51 1358.17 1001.89 1311.6C1003.3 1271.01 989.673 1238.97 961.101 1216.22C911.259 1176.21 826.58 1174.14 768.691 1189.21C672.392 1213.8 598.709 1188.29 546.528 1111.02Z" fill="white" fill-opacity="0.1"/>
<path d="M510.141 1135.99C486.744 1101.35 467.517 1056.27 452.551 1000.32C430.251 918.084 421.645 833.009 413.054 750.326C400.646 629.382 387.659 504.024 331.937 388.308L334.872 386.726C390.691 503.178 403.678 628.536 416.272 749.755C424.677 832.162 433.558 917.052 455.673 999.01C503.481 1176.53 593.619 1245.38 730.991 1209.86C789.615 1194.7 876.226 1196.67 926.714 1237.04C956.118 1260.43 970.027 1293.48 968.895 1335.08C967.523 1382.85 940.2 1415.32 913.791 1446.76C879.339 1487.64 846.991 1526.31 874.735 1595.25L871.614 1596.56C843.031 1525.78 876.018 1486.28 911.109 1444.57C937.154 1413.77 963.927 1381.68 965.581 1334.92C966.721 1294.51 953.094 1262.47 924.521 1239.73C874.865 1199.99 789.911 1198.1 731.562 1213.08C635.544 1238.69 562.136 1212.99 510.141 1135.99Z" fill="white" fill-opacity="0.1"/>
<path d="M473.569 1160.69C449.986 1125.77 430.848 1080.24 415.697 1024C393.768 942.321 384.887 857.432 376.667 775.299C364.074 654.08 351.362 528.536 294.993 412.455L297.929 410.873C354.208 527.415 367.106 653.233 379.61 774.913C388.105 856.86 396.799 941.475 418.543 1022.88C466.262 1200.86 556.036 1270.36 693.408 1234.84C752.307 1219.49 838.918 1221.46 889.406 1261.84C918.625 1284.95 932.809 1317.81 931.676 1359.41C930.49 1407.46 903.167 1439.92 876.758 1471.37C842.306 1512.25 809.958 1550.91 837.241 1619.77L834.12 1621.08C805.998 1550.39 839.171 1511.17 874.261 1469.45C900.12 1438.38 927.354 1406.37 928.548 1359.52C929.688 1319.12 915.6 1286.99 887.488 1264.33C838.018 1224.87 752.603 1222.9 694.44 1238.15C598.511 1263.29 525.564 1237.69 473.569 1160.69Z" fill="white" fill-opacity="0.1"/>
<path d="M436.907 1185.85C413.138 1150.65 393.815 1104.84 378.567 1047.88C356.824 966.469 348.315 882.129 339.731 800.643C327.226 678.963 314.329 553.144 257.96 437.063L260.896 435.481C317.636 552.112 330.444 678.391 343.134 800.346C351.718 881.833 360.227 966.172 381.785 1047.31C429.325 1226.2 519.285 1295.98 656.657 1260.46C688.633 1252.08 724.508 1249.48 758.027 1252.87C796.978 1256.59 829.81 1268.45 853.205 1287.09C882.424 1310.19 896.608 1343.06 895.75 1384.47C894.564 1432.52 867.426 1465.26 841.017 1496.71C806.566 1537.59 774.218 1576.25 801.315 1644.83L798.194 1646.14C770.718 1575.81 803.431 1536.5 838.521 1494.79C864.655 1463.53 891.428 1431.43 892.622 1384.58C893.576 1343.9 879.674 1312.05 851.287 1289.58C801.542 1250.31 716.313 1248.6 657.964 1263.58C561.939 1287.99 488.902 1262.84 436.907 1185.85Z" fill="white" fill-opacity="0.1"/>
<path d="M399.963 1210C376.194 1174.8 357.057 1129.27 341.899 1071.84C320.526 990.981 311.928 907.101 303.53 825.89C290.84 703.935 278.032 577.656 221.202 461.486L224.137 459.904C281.063 576.81 294.332 703.178 306.933 825.594C315.146 906.53 323.744 990.409 345.116 1071.27C392.567 1250.63 482.438 1320.86 619.534 1285.53C704.806 1263.58 779.739 1282.65 816.172 1311.69C845.391 1334.8 859.85 1367.48 858.992 1408.9C858.266 1457.03 830.668 1489.68 804.17 1521.59C769.719 1562.47 737.646 1600.95 764.096 1669.17L760.975 1670.47C733.685 1600.42 766.672 1560.93 801.488 1519.4C827.622 1488.14 854.67 1455.86 855.403 1408.92C856.082 1368.42 842.18 1336.57 813.979 1314.38C764.234 1275.1 680.937 1273.29 620.291 1289.02C545.311 1308.43 482.934 1296.1 435.278 1252.21C422.411 1239.68 410.734 1225.95 399.963 1210Z" fill="white" fill-opacity="0.1"/>
<path d="M363.206 1234.42C339.436 1199.22 320.203 1152.95 304.858 1095.25C283.672 1014.67 274.984 931.249 266.958 850.588C254.357 728.172 241.549 601.893 184.073 485.359L187.008 483.777C244.58 601.046 257.574 727.601 269.9 850.202C278.202 930.678 286.615 1014.28 307.89 1094.4C355.163 1274.68 444.758 1345.1 582.13 1309.59C643.786 1293.58 728.465 1295.65 779.132 1335.11C808.165 1357.94 822.624 1390.62 821.952 1432.31C821.226 1480.44 793.814 1513.37 767.13 1545C732.954 1585.7 700.606 1624.36 726.595 1692.49L723.474 1693.8C696.645 1623.83 729.543 1584.8 764.634 1543.08C790.768 1511.82 817.816 1479.54 818.638 1432.14C819.317 1391.65 805.14 1359.98 776.939 1337.79C727.193 1298.51 643.622 1296.89 582.976 1312.62C507.996 1332.03 445.709 1319.24 397.867 1275.07C385.468 1263.83 373.976 1250.37 363.206 1234.42Z" fill="white" fill-opacity="0.1"/>
<path d="M327.465 1259.76C303.325 1224.01 283.534 1176.92 268.65 1119.3C247.835 1039.27 239.333 956.125 231.217 875.924C218.891 753.323 205.712 626.494 148.05 509.685L150.985 508.103C209.019 625.462 221.923 752.477 234.435 875.353C242.551 955.554 251.142 1038.24 271.957 1118.27C293.337 1200.32 324.248 1260.33 363.672 1297.36C410.868 1341.16 471.959 1353.96 545.929 1334.84C607.585 1318.83 692.814 1320.53 743.206 1360.17C772.239 1383 786.698 1415.68 786.301 1457.19C785.761 1505.6 758.348 1538.52 731.664 1570.15C697.488 1610.85 665.14 1649.51 690.944 1717.37L687.823 1718.67C661.365 1649.26 694.353 1609.76 729.168 1568.24C755.302 1536.97 782.625 1504.51 783.172 1457.3C783.577 1416.98 769.675 1385.13 741.199 1363.12C691.639 1324.12 607.792 1322.69 546.686 1338.33C471.706 1357.74 409.418 1344.95 361.48 1300.05C348.895 1288.53 337.864 1275.15 327.465 1259.76Z" fill="white" fill-opacity="0.1"/>
<path d="M290.893 1284.45C266.567 1248.43 246.59 1201.06 231.796 1142.99C211.166 1063.23 202.761 980.823 194.37 900.808C181.858 777.932 168.768 650.642 110.645 533.743L113.581 532.161C172.075 649.61 184.89 777.085 197.587 900.236C205.793 979.976 214.198 1062.38 234.642 1141.87C256.021 1223.92 286.657 1284.11 326.082 1321.15C373.189 1365.41 434.28 1378.2 508.249 1359.08C570.366 1343.16 655.409 1344.59 705.801 1384.23C734.834 1407.06 749.568 1439.55 749.171 1481.06C748.631 1529.47 721.219 1562.39 694.446 1594.49C660.269 1635.18 627.921 1673.84 653.54 1741.42L650.419 1742.73C624.422 1673.4 657.134 1634.1 691.949 1592.57C718.358 1561.12 745.496 1528.38 745.768 1481.35C745.986 1440.77 731.809 1409.1 703.794 1387.18C654.145 1348.64 570.298 1347.21 509.192 1362.85C434.212 1382.25 372.014 1369 324.075 1324.1C312.137 1312.95 301.106 1299.58 290.893 1284.45Z" fill="white" fill-opacity="0.1"/>
<path d="M253.86 1309.06C229.348 1272.76 209.646 1225.21 194.481 1166.59C174.223 1087.38 165.542 1005.16 157.522 925.691C145.1 802.354 132.01 675.064 73.4268 558.076L76.3623 556.494C135.317 674.032 148.318 801.783 160.926 925.394C168.945 1004.86 177.44 1086.81 197.513 1165.74C218.617 1247.98 249.253 1308.17 288.589 1345.67C335.606 1390.39 397.158 1403.27 470.852 1384.34C532.969 1368.41 618.287 1369.65 668.768 1408.83C697.615 1431.39 712.35 1463.88 712.413 1505.48C712.334 1553.98 684.647 1587.09 657.873 1619.18C623.697 1659.88 591.81 1698.63 616.321 1765.76L613.2 1767.07C587.849 1698.1 620.561 1658.8 655.191 1616.99C681.6 1585.54 708.738 1552.8 708.824 1505.5C708.768 1465.1 694.591 1433.44 666.575 1411.52C616.926 1372.98 532.804 1371.73 471.423 1387.55C396.443 1406.96 334.245 1393.71 286.21 1348.07C275.193 1337.1 264.073 1324.19 253.86 1309.06Z" fill="white" fill-opacity="0.1"/>
<path d="M217.562 1333.57C192.865 1297 172.978 1249.17 157.812 1190.55C137.739 1111.62 129.43 1029.94 121.321 950.938C108.713 827.327 95.7123 699.576 36.9436 582.313L39.8791 580.731C99.0192 698.544 112.206 826.57 124.725 950.642C132.834 1029.65 140.957 1111.04 161.119 1189.52C187.501 1292.62 229.05 1361.85 284.37 1394.56C325.745 1419.07 376.391 1424.1 434.005 1409.22C496.396 1393.11 581.9 1394.63 632.196 1433.53C661.318 1455.91 676.052 1488.4 676.116 1529.99C676.037 1578.49 648.535 1611.88 621.762 1643.97C587.771 1684.94 555.698 1723.42 580.024 1790.27L576.902 1791.58C551.738 1722.89 584.45 1683.58 619.265 1642.05C645.489 1610.33 673.087 1577.68 672.987 1530.1C672.931 1489.7 658.754 1458.04 630.464 1436.3C581 1398.04 496.603 1396.98 435.222 1412.8C376.598 1427.97 325.217 1423.03 283.01 1397.88C258.165 1383.03 236.503 1361.62 217.562 1333.57Z" fill="white" fill-opacity="0.1"/>
<path d="M180.715 1358.46C156.017 1321.88 135.945 1273.78 120.957 1214.24C100.981 1136.04 92.8581 1054.64 84.9348 975.911C72.416 851.838 59.2294 723.813 0 606.461L2.9355 604.879C62.5363 722.781 75.6336 851.267 88.1524 975.339C95.89 1053.79 104.288 1135.01 124.264 1213.2C150.557 1316.76 192.292 1386.27 247.798 1419.26C289.173 1443.77 339.358 1448.71 397.157 1434.1C429.869 1425.63 466.295 1422.65 499.256 1425.21C538.571 1428.29 571.954 1439.78 595.438 1457.95C624.56 1480.33 639.294 1512.82 639.633 1554.23C640.014 1602.82 612.052 1636.11 585.279 1668.21C551.288 1709.18 519.215 1747.65 543.355 1814.23L540.234 1815.54C515.53 1746.94 549.795 1705.78 582.782 1666.29C609.281 1634.38 636.604 1601.92 636.505 1554.34C636.448 1513.94 621.996 1482.46 593.706 1460.73C544.428 1422.73 460.031 1421.67 397.914 1437.6C339.565 1452.58 288.459 1447.45 245.977 1422.49C221.593 1407.72 199.656 1386.5 180.715 1358.46Z" fill="white" fill-opacity="0.1"/>
</svg>
